<?xml version="1.0" encoding="utf-8"?>
<!-- Generator: Adobe Illustrator 24.0.1, SVG Export Plug-In . SVG Version: 6.00 Build 0)  -->
<svg version="1.1" id="Layer_1" xmlns="http://www.w3.org/2000/svg" xmlns:xlink="http://www.w3.org/1999/xlink" x="0px" y="0px"
	 viewBox="0 0 841.89 595.28" style="enable-background:new 0 0 841.89 595.28;" xml:space="preserve">
<style type="text/css">
	.st0{fill:#081F2D;}
	.st1{fill:#149AD6;}
	.st2{fill:#E2343A;}
	.st3{fill:#FCDD14;}
	.st4{fill:#8BC053;}
	.st5{fill:#683C11;}
	.st6{fill:#936037;}
	.st7{fill:none;}
</style>
<text transform="matrix(1 0 0 1 -8611.6807 -7774.2168)" style="font-family:'AllRoundGothic-Book'; font-size:52.5117px;">a</text>
<g>
	<g>
		<path class="st0" d="M320.83,358.87c0-8.61,6.31-14.92,15.26-14.92s15.15,6.31,15.15,14.92v1.26h-26.45
			c0.52,5.91,4.93,10.1,11.3,10.1c4.48,0,7.92-1.84,9.75-5.11h4.19c-2.18,5.22-7.34,8.66-13.94,8.66
			C327.15,373.79,320.83,367.48,320.83,358.87z M347.23,356.69c-0.92-5.74-5.39-9.18-11.13-9.18c-5.91,0-10.33,3.62-11.19,9.18
			H347.23z"/>
		<path class="st0" d="M353.71,365.07h3.9c0.17,3.04,2.93,5.22,7.69,5.22c4.93,0,7.69-2.29,7.69-5.34c0-3.44-3.61-3.84-7.69-4.36
			c-5.11-0.63-10.9-1.43-10.9-7.69c0-5.34,4.19-8.95,10.84-8.95s10.73,3.67,10.84,8.49h-3.79c-0.17-2.81-2.75-4.99-7.11-4.99
			s-6.94,2.18-6.94,5.11c0,3.5,3.67,3.9,7.69,4.42c4.42,0.57,10.96,1.26,10.96,7.69c0,5.39-4.53,9.12-11.59,9.12
			C358.3,373.79,353.88,370.06,353.71,365.07z"/>
		<path class="st0" d="M380.5,359.04c0-9.12,6.37-15.09,15.15-15.09c9.01,0,15.32,6.31,15.32,15.03s-6.37,14.8-14.69,14.8
			c-5.39,0-9.81-2.52-11.93-6.83v18.19h-3.84V359.04z M407.06,358.87c0-6.54-4.59-11.36-11.36-11.36c-6.83,0-11.36,4.82-11.36,11.36
			c0,6.54,4.53,11.36,11.36,11.36C402.47,370.23,407.06,365.41,407.06,358.87z"/>
		<path class="st0" d="M413.26,358.87c0-8.61,6.31-14.92,15.26-14.92s15.26,6.31,15.26,14.92c0,8.61-6.31,14.92-15.26,14.92
			S413.26,367.48,413.26,358.87z M439.88,358.87c0-6.54-4.59-11.36-11.36-11.36c-6.77,0-11.36,4.82-11.36,11.36
			c0,6.54,4.59,11.36,11.36,11.36C435.29,370.23,439.88,365.41,439.88,358.87z"/>
		<path class="st0" d="M447.22,356.06c0-8.15,4.88-12.11,11.93-12.11s11.88,3.96,11.88,12.16v0.34h-3.79v-0.4
			c0-5.91-3.27-8.55-8.09-8.55c-4.88,0-8.09,2.64-8.09,8.55v16.98h-3.84V356.06z"/>
		<path class="st0" d="M473.78,362.6v-27.94h3.84v10.04h16.7v3.5h-16.7v14.4c0,5.16,2.87,7.63,7.29,7.63c4.36,0,7.29-2.41,7.29-7.63
			v-0.63h3.73v0.63c0,7.46-4.47,11.19-11.02,11.19C478.32,373.79,473.78,370.06,473.78,362.6z"/>
		<path class="st0" d="M498.74,365.07h3.9c0.17,3.04,2.93,5.22,7.69,5.22c4.93,0,7.69-2.29,7.69-5.34c0-3.44-3.61-3.84-7.69-4.36
			c-5.11-0.63-10.9-1.43-10.9-7.69c0-5.34,4.19-8.95,10.84-8.95c6.66,0,10.73,3.67,10.84,8.49h-3.79c-0.17-2.81-2.75-4.99-7.11-4.99
			c-4.36,0-6.94,2.18-6.94,5.11c0,3.5,3.67,3.9,7.69,4.42c4.42,0.57,10.96,1.26,10.96,7.69c0,5.39-4.53,9.12-11.59,9.12
			C503.33,373.79,498.91,370.06,498.74,365.07z"/>
	</g>
	<path class="st0" d="M494.7,234.15c-13.19,0-25.05,5.65-33.31,14.66v-39.43h-7.97v51.5l0.02,0.03l0,0.01l5.23,9.12
		c4.13-16.05,18.69-27.91,36.03-27.91c20.54,0,37.19,16.65,37.19,37.2c0,20.54-16.65,37.19-37.19,37.19
		c-15.28,0-28.39-9.21-34.11-22.37l-1.28-2.25l-9.59-16.82l-1.06-1.87l-10.31-17.26l-0.03-0.06l0,0
		c-7.92-13.04-22.26-21.75-38.62-21.75c-15.44,0-29.07,7.76-37.21,19.57v-44.34h-7.97v69.95v1.92h0.05
		c1.01,24.05,20.82,43.24,45.13,43.24c18.33,0,34.1-10.93,41.18-26.63l-5.16-9.26c-4.12,16.05-18.69,27.91-36.02,27.91
		c-17.61,0-32.33-12.21-36.2-28.63c-0.66-2.75-1.01-5.61-1.01-8.56c0-1.28,0.06-2.56,0.19-3.81c0,0,0,0,0-0.01
		c1.91-18.76,17.75-33.38,37.01-33.38c13.19,0,24.77,6.88,31.38,17.24l0-0.02l0.08,0.15c0.69,1.09,1.33,2.22,1.9,3.39l2.57,4.59
		l9.02,16.08l3.25,5.79l7.93,13.03l0-0.01c7.88,13.25,22.33,22.13,38.86,22.13c24.94,0,45.17-20.23,45.17-45.17
		C539.86,254.38,519.64,234.15,494.7,234.15z"/>
	<g>
		<g>
			<g>
				<path class="st0" d="M421.91,282.63h-16.25c-1.79,0-3.24,1.45-3.24,3.23v16.25c0,1.67-1.35,3.03-3.02,3.03
					c-1.68,0-3.03-1.35-3.03-3.03v-16.25c0-1.78-1.45-3.23-3.23-3.23h-16.25c-1.68,0-3.03-1.37-3.03-3.03
					c0-1.67,1.35-3.02,3.03-3.02h16.25c1.78,0,3.23-1.45,3.23-3.24v-16.25c0-1.67,1.35-3.02,3.03-3.02c1.67,0,3.02,1.35,3.02,3.02
					v16.25c0,1.79,1.45,3.24,3.24,3.24h16.25c1.67,0,3.02,1.35,3.02,3.02C424.93,281.27,423.58,282.63,421.91,282.63z"/>
			</g>
		</g>
	</g>
	<g>
		<g>
			<g>
				<path class="st1" d="M473.59,269.86c-5.22,0-9.46,4.24-9.46,9.44c0,5.22,4.24,9.46,9.46,9.46c5.22,0,9.44-4.24,9.44-9.46
					C483.04,274.09,478.82,269.86,473.59,269.86z M473.59,285.36c-3.33,0-6.06-2.72-6.06-6.06c0-3.33,2.72-6.04,6.06-6.04
					c3.33,0,6.04,2.71,6.04,6.04C479.63,282.63,476.93,285.36,473.59,285.36z"/>
			</g>
		</g>
		<g>
			<g>
				<path class="st2" d="M513.18,269.86c-5.22,0-9.44,4.24-9.44,9.44c0,5.22,4.22,9.46,9.44,9.46c5.22,0,9.46-4.24,9.46-9.46
					C522.64,274.09,518.4,269.86,513.18,269.86z M513.18,285.36c-3.33,0-6.04-2.72-6.04-6.06c0-3.33,2.7-6.04,6.04-6.04
					c3.33,0,6.06,2.71,6.06,6.04C519.24,282.63,516.52,285.36,513.18,285.36z"/>
			</g>
		</g>
		<g>
			<g>
				<path class="st3" d="M494.28,250.69c-5.21,0-9.44,4.24-9.44,9.46c0,5.22,4.24,9.44,9.44,9.44c5.22,0,9.46-4.22,9.46-9.44
					C503.74,254.92,499.5,250.69,494.28,250.69z M494.28,266.18c-3.33,0-6.04-2.7-6.04-6.04c0-3.33,2.7-6.06,6.04-6.06
					c3.33,0,6.06,2.72,6.06,6.06C500.34,263.48,497.62,266.18,494.28,266.18z"/>
			</g>
		</g>
		<g>
			<g>
				<path class="st4" d="M494.28,288.76c-5.21,0-9.44,4.24-9.44,9.44c0,2.3,0.83,4.44,2.21,6.07c1.72,2.08,4.32,3.39,7.23,3.39
					c5.04,0,9.15-3.93,9.42-8.9c0.03-0.19,0.03-0.37,0.03-0.56C503.74,292.99,499.5,288.76,494.28,288.76z M494.28,304.26
					c-1.31,0-2.52-0.41-3.5-1.12c-1.53-1.11-2.53-2.91-2.53-4.93c0-3.33,2.7-6.04,6.04-6.04c3.33,0,6.06,2.71,6.06,6.04
					c0,0.65-0.1,1.26-0.29,1.85C499.27,302.49,496.97,304.26,494.28,304.26z"/>
			</g>
		</g>
	</g>
	<g>
		<polygon class="st0" points="238.36,235.13 227.81,235.13 227.81,359.89 296.38,359.89 296.38,350.22 238.36,350.22 
			238.36,235.13 		"/>
	</g>
	<path class="st0" d="M546.14,341.76h9.43c3.66,9.42,12.24,14.07,23.77,14.07c14.91,0,25.32-7.31,25.32-25.46v-21.85
		c-4.92,9.99-14.21,15.33-26.31,15.33c-18.57,0-32.92-11.25-32.92-35.03v-53.69h9.43v53.69c0,17.16,9.85,26.31,24.9,26.31
		c14.91,0,24.9-9.28,24.9-26.31v-53.69h9.42v94.95c0,24.2-15.33,34.04-34.75,34.04C563.58,364.12,550.5,356.81,546.14,341.76z"/>
	<path class="st5" d="M316.3,280.48c-10.38,7.98-19.03,10.48-42.11,7.02c-1.87-0.28-3.72-0.37-5.53-0.31
		c3.11,15.48,16.79,27.14,33.19,27.14c18.31,0,33.22-14.53,33.83-32.69C328.55,278.11,321.96,276.12,316.3,280.48z"/>
	<path class="st6" d="M300.73,284.71c0,0,0.04-0.03,0.1-0.08c0.07-0.05,0.16-0.14,0.29-0.24c0.13-0.11,0.28-0.24,0.45-0.41
		c0.09-0.08,0.18-0.17,0.28-0.26c0.1-0.09,0.2-0.19,0.31-0.3c0.43-0.43,0.94-0.97,1.48-1.62c0.54-0.65,1.11-1.4,1.66-2.27
		c0.13-0.22,0.28-0.43,0.41-0.66c0.07-0.11,0.14-0.23,0.2-0.35c0.07-0.12,0.13-0.24,0.2-0.36c0.06-0.12,0.13-0.24,0.2-0.36
		c0.06-0.12,0.13-0.25,0.19-0.38c0.13-0.25,0.24-0.51,0.36-0.78c0.47-1.06,0.88-2.2,1.18-3.42c0.3-1.21,0.51-2.49,0.6-3.8
		c0.01-0.16,0.02-0.33,0.03-0.49l0.01-0.25l0.01-0.12c0-0.04,0-0.08,0-0.12c0-0.33,0.01-0.65,0.01-0.98c0-0.17-0.01-0.35-0.01-0.53
		c-0.01-0.16-0.02-0.32-0.02-0.48l-0.04-0.49l-0.05-0.49c-0.07-0.65-0.19-1.28-0.35-1.9c-0.08-0.31-0.17-0.61-0.27-0.91
		c-0.1-0.3-0.21-0.59-0.34-0.88c-0.24-0.58-0.54-1.13-0.86-1.66c-0.33-0.53-0.69-1.04-1.08-1.53c-0.77-0.98-1.64-1.89-2.45-2.81
		c-0.41-0.46-0.81-0.91-1.18-1.37c-0.37-0.46-0.72-0.93-1.02-1.4c-0.3-0.47-0.56-0.94-0.78-1.4c-0.21-0.46-0.39-0.92-0.51-1.35
		c-0.13-0.43-0.22-0.85-0.28-1.23c-0.05-0.38-0.09-0.73-0.1-1.05c0-0.08-0.01-0.16-0.01-0.23c0-0.07,0-0.15,0-0.22
		c0-0.14,0-0.27,0.01-0.39c0-0.24,0.03-0.45,0.04-0.62c0.02-0.17,0.04-0.29,0.05-0.38c0.01-0.09,0.02-0.13,0.02-0.13
		s0.03,0.18,0.08,0.5c0.06,0.33,0.15,0.8,0.31,1.39c0.02,0.07,0.04,0.15,0.06,0.22c0.02,0.08,0.05,0.15,0.07,0.23
		c0.01,0.04,0.03,0.08,0.04,0.12c0.01,0.04,0.03,0.08,0.04,0.12c0.03,0.08,0.06,0.17,0.09,0.25c0.13,0.34,0.28,0.69,0.47,1.06
		c0.37,0.73,0.89,1.49,1.55,2.25c0.17,0.19,0.34,0.38,0.52,0.57c0.18,0.19,0.37,0.38,0.57,0.57c0.4,0.38,0.82,0.77,1.27,1.17
		c0.89,0.8,1.87,1.67,2.81,2.7c0.47,0.52,0.92,1.08,1.34,1.68c0.21,0.3,0.41,0.62,0.6,0.94c0.18,0.33,0.36,0.66,0.52,1.01
		c0.16,0.34,0.3,0.7,0.44,1.06c0.13,0.36,0.25,0.72,0.35,1.09c0.2,0.74,0.34,1.49,0.43,2.24l0.06,0.56l0.04,0.56
		c0.01,0.19,0.01,0.39,0.02,0.58c0,0.18,0,0.35,0,0.53l0,0.08l0,0.07l0,0.14l-0.01,0.28c-0.01,0.18-0.01,0.37-0.02,0.55
		c0,0.05,0,0.09-0.01,0.14l-0.01,0.14l-0.02,0.27c-0.02,0.18-0.03,0.37-0.05,0.55c-0.15,1.46-0.46,2.87-0.89,4.2
		c-0.43,1.33-1,2.56-1.64,3.65c-0.16,0.27-0.32,0.54-0.49,0.8c-0.08,0.13-0.17,0.26-0.25,0.38c-0.08,0.13-0.18,0.25-0.26,0.37
		c-0.09,0.12-0.17,0.24-0.26,0.36c-0.09,0.11-0.18,0.23-0.27,0.34c-0.17,0.23-0.36,0.44-0.54,0.65c-0.04,0.05-0.09,0.1-0.13,0.15
		c-0.05,0.05-0.09,0.1-0.14,0.15c-0.09,0.1-0.18,0.2-0.27,0.29c-0.18,0.19-0.36,0.37-0.54,0.55c-0.18,0.17-0.36,0.34-0.53,0.49
		c-0.18,0.15-0.35,0.31-0.52,0.45c-0.68,0.56-1.31,1-1.84,1.33c-0.27,0.17-0.51,0.31-0.72,0.42c-0.21,0.12-0.4,0.21-0.55,0.28
		c-0.15,0.07-0.27,0.12-0.35,0.16C300.77,284.7,300.73,284.71,300.73,284.71z"/>
	<path class="st6" d="M314.27,227.75c-0.03,0.08-0.08,0.16-0.12,0.24c-0.04,0.08-0.09,0.16-0.14,0.25c-0.05,0.08-0.1,0.17-0.16,0.26
		c-0.06,0.09-0.12,0.17-0.18,0.26c-0.26,0.35-0.56,0.73-0.93,1.1c-0.37,0.38-0.8,0.76-1.27,1.17c-0.95,0.81-2.09,1.67-3.32,2.73
		c-0.61,0.53-1.24,1.12-1.86,1.78c-0.62,0.67-1.23,1.41-1.77,2.26c-0.54,0.85-1.02,1.8-1.37,2.82l-0.07,0.19l-0.06,0.2
		c-0.04,0.13-0.08,0.26-0.12,0.39c-0.07,0.26-0.13,0.53-0.19,0.8c-0.03,0.14-0.05,0.27-0.08,0.41c-0.02,0.14-0.04,0.27-0.07,0.41
		c-0.02,0.14-0.04,0.28-0.05,0.41c-0.01,0.07-0.02,0.14-0.02,0.21l-0.02,0.22c-0.01,0.15-0.02,0.31-0.03,0.42l-0.01,0.18l-0.01,0.09
		l0,0.05l0,0.08c0,0.14,0,0.28-0.01,0.42c0,0.14,0.01,0.28,0.01,0.43c0.02,0.57,0.07,1.16,0.17,1.75c0.1,0.59,0.24,1.18,0.44,1.77
		c0.2,0.58,0.44,1.15,0.72,1.7c0.28,0.55,0.61,1.07,0.96,1.55c0.35,0.49,0.72,0.94,1.1,1.37c0.75,0.86,1.53,1.62,2.26,2.35
		c0.73,0.72,1.4,1.42,1.99,2.13l0.22,0.27l0.21,0.27c0.07,0.09,0.13,0.18,0.2,0.27c0.06,0.09,0.13,0.18,0.19,0.27
		c0.25,0.37,0.47,0.74,0.67,1.13c0.4,0.77,0.71,1.58,0.93,2.42c0.11,0.42,0.21,0.85,0.27,1.29c0.01,0.05,0.02,0.11,0.03,0.16
		l0.02,0.16c0.01,0.11,0.03,0.22,0.05,0.33c0.01,0.11,0.02,0.22,0.04,0.33c0.01,0.06,0.01,0.11,0.02,0.16l0.01,0.16
		c0.02,0.19,0.03,0.46,0.05,0.7l0,0.05l0,0.02c0,0,0,0,0,0c0,0,0-0.02,0-0.02c0,0,0,0,0,0.01l0,0.08l0,0.17
		c0,0.11,0.01,0.22,0.01,0.34c0,0.22,0.01,0.45,0.01,0.67c0,0.22-0.01,0.44-0.01,0.66c0,0.11-0.01,0.22-0.02,0.33
		c-0.01,0.11-0.01,0.22-0.02,0.32c-0.01,0.22-0.02,0.43-0.05,0.64c-0.02,0.21-0.05,0.42-0.07,0.63c-0.03,0.21-0.06,0.42-0.09,0.62
		c-0.02,0.1-0.03,0.21-0.05,0.31c-0.02,0.1-0.04,0.2-0.06,0.3c-0.04,0.2-0.08,0.4-0.12,0.6c-0.05,0.2-0.1,0.39-0.14,0.59
		c-0.02,0.1-0.04,0.2-0.07,0.29c-0.03,0.1-0.05,0.19-0.08,0.29c-0.03,0.1-0.05,0.19-0.08,0.28c-0.03,0.09-0.05,0.19-0.08,0.28
		c-0.06,0.19-0.12,0.37-0.18,0.55c-0.03,0.09-0.06,0.18-0.1,0.27c-0.03,0.09-0.07,0.18-0.1,0.27c-0.03,0.09-0.07,0.18-0.1,0.26
		c-0.03,0.09-0.07,0.17-0.11,0.26c-0.07,0.17-0.14,0.34-0.21,0.51c-0.08,0.17-0.15,0.33-0.23,0.49c-0.04,0.08-0.07,0.16-0.11,0.24
		c-0.04,0.08-0.08,0.16-0.12,0.23c-0.08,0.15-0.15,0.31-0.24,0.46c-0.32,0.6-0.66,1.16-1,1.68c-0.34,0.51-0.68,0.99-1.01,1.41
		c-0.33,0.43-0.65,0.81-0.95,1.15c-0.3,0.34-0.58,0.63-0.83,0.89c-0.12,0.13-0.24,0.24-0.35,0.35c-0.11,0.11-0.21,0.2-0.3,0.28
		c-0.36,0.33-0.57,0.5-0.57,0.5s0.06-0.02,0.18-0.07c0.12-0.05,0.3-0.12,0.52-0.23c0.22-0.11,0.5-0.25,0.82-0.43
		c0.08-0.04,0.16-0.09,0.25-0.14c0.08-0.05,0.17-0.1,0.26-0.16c0.18-0.11,0.37-0.23,0.56-0.36c0.2-0.13,0.4-0.27,0.61-0.43
		c0.11-0.08,0.21-0.16,0.32-0.24c0.11-0.08,0.22-0.17,0.33-0.26c0.11-0.09,0.22-0.18,0.34-0.28c0.11-0.1,0.23-0.2,0.34-0.3
		c0.24-0.2,0.46-0.43,0.7-0.66c0.23-0.24,0.48-0.48,0.71-0.75c0.06-0.07,0.12-0.13,0.18-0.2c0.06-0.07,0.12-0.13,0.18-0.21
		c0.12-0.14,0.24-0.28,0.36-0.43c0.06-0.07,0.12-0.15,0.18-0.22c0.06-0.08,0.12-0.15,0.17-0.23c0.06-0.08,0.12-0.16,0.18-0.23
		c0.06-0.08,0.11-0.16,0.17-0.24c0.11-0.16,0.23-0.33,0.34-0.5c0.11-0.17,0.22-0.35,0.33-0.52c0.43-0.71,0.86-1.48,1.22-2.31
		c0.05-0.1,0.09-0.21,0.14-0.31c0.05-0.1,0.09-0.21,0.13-0.32c0.08-0.22,0.17-0.43,0.25-0.65c0.08-0.22,0.15-0.45,0.23-0.67
		c0.04-0.11,0.08-0.23,0.11-0.34c0.03-0.12,0.06-0.23,0.1-0.35c0.03-0.12,0.06-0.23,0.1-0.35l0.05-0.18
		c0.02-0.06,0.03-0.12,0.05-0.18c0.05-0.24,0.11-0.48,0.16-0.72c0.06-0.24,0.1-0.49,0.14-0.74c0.02-0.12,0.04-0.25,0.06-0.37
		c0.02-0.13,0.04-0.25,0.06-0.38c0.06-0.5,0.13-1.02,0.15-1.53c0.01-0.13,0.02-0.26,0.03-0.39l0.01-0.2l0.01-0.1l0-0.12
		c0.01-0.25,0.02-0.47,0.01-0.77l0-0.21c0-0.07,0-0.14,0-0.21c0-0.14-0.01-0.27-0.01-0.41c0-0.14-0.02-0.27-0.02-0.41
		c-0.01-0.14-0.02-0.28-0.03-0.41c-0.05-0.55-0.13-1.12-0.25-1.68c-0.11-0.56-0.26-1.13-0.44-1.69c-0.18-0.56-0.41-1.11-0.66-1.65
		c-0.25-0.54-0.55-1.06-0.87-1.57c-0.08-0.13-0.16-0.25-0.24-0.37c-0.08-0.12-0.17-0.24-0.25-0.36l-0.26-0.35l-0.27-0.35
		c-0.72-0.91-1.51-1.72-2.26-2.48c-0.76-0.75-1.48-1.46-2.12-2.15c-0.32-0.35-0.61-0.7-0.88-1.05c-0.27-0.35-0.5-0.7-0.71-1.07
		c-0.21-0.36-0.38-0.73-0.53-1.11c-0.15-0.38-0.27-0.77-0.36-1.17c-0.09-0.4-0.16-0.82-0.2-1.24c-0.01-0.11-0.02-0.21-0.03-0.32
		c-0.01-0.11-0.01-0.21-0.02-0.32l0-0.02c0-0.01,0-0.01,0-0.01c0,0,0,0.02,0,0.02c0,0,0,0,0,0l0-0.05l0-0.09l0-0.19
		c0-0.13,0-0.22,0-0.32l0-0.15c0,0,0,0,0,0h0l0,0c0-0.05,0-0.1,0.01-0.16c0.01-0.1,0.01-0.21,0.01-0.31
		c0.01-0.1,0.01-0.21,0.02-0.31c0.01-0.1,0.02-0.21,0.03-0.31c0.03-0.2,0.05-0.41,0.09-0.61c0.01-0.1,0.04-0.2,0.06-0.3l0.03-0.15
		l0.03-0.15c0.09-0.39,0.21-0.78,0.34-1.16c0.13-0.38,0.29-0.74,0.46-1.1c0.35-0.72,0.76-1.4,1.21-2.05
		c0.45-0.65,0.94-1.26,1.42-1.85c0.98-1.18,1.96-2.26,2.77-3.31c0.81-1.04,1.44-2.07,1.78-2.98c0.18-0.45,0.28-0.88,0.34-1.25
		c0.01-0.09,0.03-0.18,0.04-0.27c0.01-0.09,0.02-0.17,0.02-0.25c0.01-0.16,0.01-0.3,0.01-0.43c0-0.06,0-0.12,0-0.18
		c0-0.06-0.01-0.11-0.01-0.16c0-0.05-0.01-0.09-0.01-0.13c-0.01-0.04-0.01-0.08-0.01-0.11c-0.02-0.13-0.03-0.19-0.03-0.19
		s-0.01,0.07-0.04,0.19c-0.01,0.03-0.01,0.07-0.02,0.1c-0.01,0.04-0.02,0.08-0.03,0.13c-0.01,0.05-0.02,0.09-0.04,0.15c0,0,0,0,0,0
		h0h0c-0.01,0.05-0.03,0.11-0.05,0.17C314.52,227.16,314.42,227.44,314.27,227.75z"/>
	<g>
		<polygon class="st7" points="306.14,244.54 306.14,244.54 306.15,244.54 		"/>
		<path class="st0" d="M311.05,235.59c-0.14,0.16-0.28,0.32-0.42,0.49c-0.55,0.66-0.99,1.23-1.37,1.78
			c-0.46,0.66-0.83,1.28-1.13,1.91c-0.16,0.33-0.3,0.66-0.42,1c-0.12,0.34-0.22,0.69-0.31,1.05l-0.06,0.27
			c-0.02,0.12-0.04,0.18-0.05,0.24c-0.04,0.22-0.06,0.4-0.09,0.59l-0.02,0.29c17.9,2.45,31.73,17.83,31.73,36.39
			c0,20.26-16.48,36.74-36.74,36.74s-36.74-16.48-36.74-36.74c0-20.06,16.16-36.41,36.15-36.73c0-0.01,0-0.01,0-0.02l0.15-0.84
			c0.07-0.31,0.13-0.6,0.21-0.88c0.03-0.12,0.07-0.25,0.11-0.39l0.15-0.45c0.36-1.05,0.85-2.07,1.47-3.04
			c0.53-0.83,1.14-1.61,1.88-2.4c0,0,0.01-0.01,0.01-0.01c-1.12-0.08-2.25-0.14-3.39-0.14c-24.8,0-44.9,20.1-44.9,44.9
			s20.1,44.9,44.9,44.9c24.8,0,44.9-20.1,44.9-44.9C347.07,257.84,331.59,239.71,311.05,235.59z"/>
	</g>
</g>
</svg>
