<svg xmlns="http://www.w3.org/2000/svg" xmlns:xlink="http://www.w3.org/1999/xlink" version="1.1" width="1000" height="1000" viewBox="0 0 1000 1000" xml:space="preserve">
<defs>
</defs>
<rect x="0" y="0" width="100%" height="100%" fill="#ffffff"></rect>
<g transform="matrix(2.2224 0 0 2.2224 493.2869 507.4103)" id="736754"  >
<g style="" vector-effect="non-scaling-stroke"   >
		<g transform="matrix(1 0 0 1 -9020.9721 -8088.3075)" style="" id="Layer_1"  >
		<text xml:space="preserve" font-family="'AllRoundGothic-Book'" font-size="52.5117" font-style="normal" font-weight="normal" style="stroke: none; stroke-width: 1; stroke-dasharray: none; stroke-linecap: butt; stroke-dashoffset: 0; stroke-linejoin: miter; stroke-miterlimit: 4; is-custom-font: none; font-file-url: none; fill: rgb(0,0,0); fill-rule: nonzero; opacity: 1; white-space: pre;" ><tspan x="-11.6536" y="16.496" >a</tspan></text>
</g>
		<g transform="matrix(1 0 0 1 -84.91 61.225)" id="Layer_1"  >
<path style="stroke: none; stroke-width: 1; stroke-dasharray: none; stroke-linecap: butt; stroke-dashoffset: 0; stroke-linejoin: miter; stroke-miterlimit: 4; is-custom-font: none; font-file-url: none; fill: rgb(8,31,45); fill-rule: nonzero; opacity: 1;"  transform=" translate(-336.035, -358.865)" d="M 320.83 358.87 c 0 -8.61 6.31 -14.92 15.26 -14.92 s 15.15 6.31 15.15 14.92 v 1.26 h -26.45 c 0.52 5.91 4.93 10.1 11.3 10.1 c 4.48 0 7.92 -1.84 9.75 -5.11 h 4.19 c -2.18 5.22 -7.34 8.66 -13.94 8.66 C 327.15 373.79 320.83 367.48 320.83 358.87 z M 347.23 356.69 c -0.92 -5.74 -5.39 -9.18 -11.13 -9.18 c -5.91 0 -10.33 3.62 -11.19 9.18 H 347.23 z" stroke-linecap="round" />
</g>
		<g transform="matrix(1 0 0 1 -55.645 61.23)" id="Layer_1"  >
<path style="stroke: none; stroke-width: 1; stroke-dasharray: none; stroke-linecap: butt; stroke-dashoffset: 0; stroke-linejoin: miter; stroke-miterlimit: 4; is-custom-font: none; font-file-url: none; fill: rgb(8,31,45); fill-rule: nonzero; opacity: 1;"  transform=" translate(-365.3, -358.87)" d="M 353.71 365.07 h 3.9 c 0.17 3.04 2.93 5.22 7.69 5.22 c 4.93 0 7.69 -2.29 7.69 -5.34 c 0 -3.44 -3.61 -3.84 -7.69 -4.36 c -5.11 -0.63 -10.9 -1.43 -10.9 -7.69 c 0 -5.34 4.19 -8.95 10.84 -8.95 s 10.73 3.67 10.84 8.49 h -3.79 c -0.17 -2.81 -2.75 -4.99 -7.11 -4.99 s -6.94 2.18 -6.94 5.11 c 0 3.5 3.67 3.9 7.69 4.42 c 4.42 0.57 10.96 1.26 10.96 7.69 c 0 5.39 -4.53 9.12 -11.59 9.12 C 358.3 373.79 353.88 370.06 353.71 365.07 z" stroke-linecap="round" />
</g>
		<g transform="matrix(1 0 0 1 -25.21 66.905)" id="Layer_1"  >
<path style="stroke: none; stroke-width: 1; stroke-dasharray: none; stroke-linecap: butt; stroke-dashoffset: 0; stroke-linejoin: miter; stroke-miterlimit: 4; is-custom-font: none; font-file-url: none; fill: rgb(8,31,45); fill-rule: nonzero; opacity: 1;"  transform=" translate(-395.735, -364.545)" d="M 380.5 359.04 c 0 -9.12 6.37 -15.09 15.15 -15.09 c 9.01 0 15.32 6.31 15.32 15.03 s -6.37 14.8 -14.69 14.8 c -5.39 0 -9.81 -2.52 -11.93 -6.83 v 18.19 h -3.84 V 359.04 z M 407.06 358.87 c 0 -6.54 -4.59 -11.36 -11.36 -11.36 c -6.83 0 -11.36 4.82 -11.36 11.36 c 0 6.54 4.53 11.36 11.36 11.36 C 402.47 370.23 407.06 365.41 407.06 358.87 z" stroke-linecap="round" />
</g>
		<g transform="matrix(1 0 0 1 7.575 61.23)" id="Layer_1"  >
<path style="stroke: none; stroke-width: 1; stroke-dasharray: none; stroke-linecap: butt; stroke-dashoffset: 0; stroke-linejoin: miter; stroke-miterlimit: 4; is-custom-font: none; font-file-url: none; fill: rgb(8,31,45); fill-rule: nonzero; opacity: 1;"  transform=" translate(-428.52, -358.87)" d="M 413.26 358.87 c 0 -8.61 6.31 -14.92 15.26 -14.92 s 15.26 6.31 15.26 14.92 c 0 8.61 -6.31 14.92 -15.26 14.92 S 413.26 367.48 413.26 358.87 z M 439.88 358.87 c 0 -6.54 -4.59 -11.36 -11.36 -11.36 c -6.77 0 -11.36 4.82 -11.36 11.36 c 0 6.54 4.59 11.36 11.36 11.36 C 435.29 370.23 439.88 365.41 439.88 358.87 z" stroke-linecap="round" />
</g>
		<g transform="matrix(1 0 0 1 38.18 60.85)" id="Layer_1"  >
<path style="stroke: none; stroke-width: 1; stroke-dasharray: none; stroke-linecap: butt; stroke-dashoffset: 0; stroke-linejoin: miter; stroke-miterlimit: 4; is-custom-font: none; font-file-url: none; fill: rgb(8,31,45); fill-rule: nonzero; opacity: 1;"  transform=" translate(-459.125, -358.49)" d="M 447.22 356.06 c 0 -8.15 4.88 -12.11 11.93 -12.11 s 11.88 3.96 11.88 12.16 v 0.34 h -3.79 v -0.4 c 0 -5.91 -3.27 -8.55 -8.09 -8.55 c -4.88 0 -8.09 2.64 -8.09 8.55 v 16.98 h -3.84 V 356.06 z" stroke-linecap="round" />
</g>
		<g transform="matrix(1 0 0 1 63.91 56.585)" id="Layer_1"  >
<path style="stroke: none; stroke-width: 1; stroke-dasharray: none; stroke-linecap: butt; stroke-dashoffset: 0; stroke-linejoin: miter; stroke-miterlimit: 4; is-custom-font: none; font-file-url: none; fill: rgb(8,31,45); fill-rule: nonzero; opacity: 1;"  transform=" translate(-484.855, -354.225)" d="M 473.78 362.6 v -27.94 h 3.84 v 10.04 h 16.7 v 3.5 h -16.7 v 14.4 c 0 5.16 2.87 7.63 7.29 7.63 c 4.36 0 7.29 -2.41 7.29 -7.63 v -0.63 h 3.73 v 0.63 c 0 7.46 -4.47 11.19 -11.02 11.19 C 478.32 373.79 473.78 370.06 473.78 362.6 z" stroke-linecap="round" />
</g>
		<g transform="matrix(1 0 0 1 89.385 61.23)" id="Layer_1"  >
<path style="stroke: none; stroke-width: 1; stroke-dasharray: none; stroke-linecap: butt; stroke-dashoffset: 0; stroke-linejoin: miter; stroke-miterlimit: 4; is-custom-font: none; font-file-url: none; fill: rgb(8,31,45); fill-rule: nonzero; opacity: 1;"  transform=" translate(-510.33, -358.87)" d="M 498.74 365.07 h 3.9 c 0.17 3.04 2.93 5.22 7.69 5.22 c 4.93 0 7.69 -2.29 7.69 -5.34 c 0 -3.44 -3.61 -3.84 -7.69 -4.36 c -5.11 -0.63 -10.9 -1.43 -10.9 -7.69 c 0 -5.34 4.19 -8.95 10.84 -8.95 c 6.66 0 10.73 3.67 10.84 8.49 h -3.79 c -0.17 -2.81 -2.75 -4.99 -7.11 -4.99 c -4.36 0 -6.94 2.18 -6.94 5.11 c 0 3.5 3.67 3.9 7.69 4.42 c 4.42 0.57 10.96 1.26 10.96 7.69 c 0 5.39 -4.53 9.12 -11.59 9.12 C 503.33 373.79 498.91 370.06 498.74 365.07 z" stroke-linecap="round" />
</g>
		<g transform="matrix(1 0 0 1 26.24 -30.715)" id="Layer_1"  >
<path style="stroke: none; stroke-width: 1; stroke-dasharray: none; stroke-linecap: butt; stroke-dashoffset: 0; stroke-linejoin: miter; stroke-miterlimit: 4; is-custom-font: none; font-file-url: none; fill: rgb(8,31,45); fill-rule: nonzero; opacity: 1;"  transform=" translate(-447.185, -266.925)" d="M 494.7 234.15 c -13.19 0 -25.05 5.65 -33.31 14.66 v -39.43 h -7.97 v 51.5 l 0.02 0.03 l 0 0.01 l 5.23 9.12 c 4.13 -16.05 18.69 -27.91 36.03 -27.91 c 20.54 0 37.19 16.65 37.19 37.2 c 0 20.54 -16.65 37.19 -37.19 37.19 c -15.28 0 -28.39 -9.21 -34.11 -22.37 l -1.28 -2.25 l -9.59 -16.82 l -1.06 -1.87 l -10.31 -17.26 l -0.03 -0.06 l 0 0 c -7.92 -13.04 -22.26 -21.75 -38.62 -21.75 c -15.44 0 -29.07 7.76 -37.21 19.57 v -44.34 h -7.97 v 69.95 v 1.92 h 0.05 c 1.01 24.05 20.82 43.24 45.13 43.24 c 18.33 0 34.1 -10.93 41.18 -26.63 l -5.16 -9.26 c -4.12 16.05 -18.69 27.91 -36.02 27.91 c -17.61 0 -32.33 -12.21 -36.2 -28.63 c -0.66 -2.75 -1.01 -5.61 -1.01 -8.56 c 0 -1.28 0.06 -2.56 0.19 -3.81 c 0 0 0 0 0 -0.01 c 1.91 -18.76 17.75 -33.38 37.01 -33.38 c 13.19 0 24.77 6.88 31.38 17.24 l 0 -0.02 l 0.08 0.15 c 0.69 1.09 1.33 2.22 1.9 3.39 l 2.57 4.59 l 9.02 16.08 l 3.25 5.79 l 7.93 13.03 l 0 -0.01 c 7.88 13.25 22.33 22.13 38.86 22.13 c 24.94 0 45.17 -20.23 45.17 -45.17 C 539.86 254.38 519.64 234.15 494.7 234.15 z" stroke-linecap="round" />
</g>
		<g transform="matrix(1 0 0 1 -21.55 -18.035)" id="Layer_1"  >
<path style="stroke: none; stroke-width: 1; stroke-dasharray: none; stroke-linecap: butt; stroke-dashoffset: 0; stroke-linejoin: miter; stroke-miterlimit: 4; is-custom-font: none; font-file-url: none; fill: rgb(8,31,45); fill-rule: nonzero; opacity: 1;"  transform=" translate(-399.395, -279.605)" d="M 421.91 282.63 h -16.25 c -1.79 0 -3.24 1.45 -3.24 3.23 v 16.25 c 0 1.67 -1.35 3.03 -3.02 3.03 c -1.68 0 -3.03 -1.35 -3.03 -3.03 v -16.25 c 0 -1.78 -1.45 -3.23 -3.23 -3.23 h -16.25 c -1.68 0 -3.03 -1.37 -3.03 -3.03 c 0 -1.67 1.35 -3.02 3.03 -3.02 h 16.25 c 1.78 0 3.23 -1.45 3.23 -3.24 v -16.25 c 0 -1.67 1.35 -3.02 3.03 -3.02 c 1.67 0 3.02 1.35 3.02 3.02 v 16.25 c 0 1.79 1.45 3.24 3.24 3.24 h 16.25 c 1.67 0 3.02 1.35 3.02 3.02 C 424.93 281.27 423.58 282.63 421.91 282.63 z" stroke-linecap="round" />
</g>
		<g transform="matrix(1 0 0 1 52.635 -18.33)" id="Layer_1"  >
<path style="stroke: none; stroke-width: 1; stroke-dasharray: none; stroke-linecap: butt; stroke-dashoffset: 0; stroke-linejoin: miter; stroke-miterlimit: 4; is-custom-font: none; font-file-url: none; fill: rgb(20,154,214); fill-rule: nonzero; opacity: 1;"  transform=" translate(-473.58, -279.31)" d="M 473.59 269.86 c -5.22 0 -9.46 4.24 -9.46 9.44 c 0 5.22 4.24 9.46 9.46 9.46 c 5.22 0 9.44 -4.24 9.44 -9.46 C 483.04 274.09 478.82 269.86 473.59 269.86 z M 473.59 285.36 c -3.33 0 -6.06 -2.72 -6.06 -6.06 c 0 -3.33 2.72 -6.04 6.06 -6.04 c 3.33 0 6.04 2.71 6.04 6.04 C 479.63 282.63 476.93 285.36 473.59 285.36 z" stroke-linecap="round" />
</g>
		<g transform="matrix(1 0 0 1 92.245 -18.33)" id="Layer_1"  >
<path style="stroke: none; stroke-width: 1; stroke-dasharray: none; stroke-linecap: butt; stroke-dashoffset: 0; stroke-linejoin: miter; stroke-miterlimit: 4; is-custom-font: none; font-file-url: none; fill: rgb(226,52,58); fill-rule: nonzero; opacity: 1;"  transform=" translate(-513.19, -279.31)" d="M 513.18 269.86 c -5.22 0 -9.44 4.24 -9.44 9.44 c 0 5.22 4.22 9.46 9.44 9.46 c 5.22 0 9.46 -4.24 9.46 -9.46 C 522.64 274.09 518.4 269.86 513.18 269.86 z M 513.18 285.36 c -3.33 0 -6.04 -2.72 -6.04 -6.06 c 0 -3.33 2.7 -6.04 6.04 -6.04 c 3.33 0 6.06 2.71 6.06 6.04 C 519.24 282.63 516.52 285.36 513.18 285.36 z" stroke-linecap="round" />
</g>
		<g transform="matrix(1 0 0 1 73.345 -37.5)" id="Layer_1"  >
<path style="stroke: none; stroke-width: 1; stroke-dasharray: none; stroke-linecap: butt; stroke-dashoffset: 0; stroke-linejoin: miter; stroke-miterlimit: 4; is-custom-font: none; font-file-url: none; fill: rgb(252,221,20); fill-rule: nonzero; opacity: 1;"  transform=" translate(-494.29, -260.14)" d="M 494.28 250.69 c -5.21 0 -9.44 4.24 -9.44 9.46 c 0 5.22 4.24 9.44 9.44 9.44 c 5.22 0 9.46 -4.22 9.46 -9.44 C 503.74 254.92 499.5 250.69 494.28 250.69 z M 494.28 266.18 c -3.33 0 -6.04 -2.7 -6.04 -6.04 c 0 -3.33 2.7 -6.06 6.04 -6.06 c 3.33 0 6.06 2.72 6.06 6.06 C 500.34 263.48 497.62 266.18 494.28 266.18 z" stroke-linecap="round" />
</g>
		<g transform="matrix(1 0 0 1 73.34 0.57)" id="Layer_1"  >
<path style="stroke: none; stroke-width: 1; stroke-dasharray: none; stroke-linecap: butt; stroke-dashoffset: 0; stroke-linejoin: miter; stroke-miterlimit: 4; is-custom-font: none; font-file-url: none; fill: rgb(139,192,83); fill-rule: nonzero; opacity: 1;"  transform=" translate(-494.285, -298.21)" d="M 494.28 288.76 c -5.21 0 -9.44 4.24 -9.44 9.44 c 0 2.3 0.83 4.44 2.21 6.07 c 1.72 2.08 4.32 3.39 7.23 3.39 c 5.04 0 9.15 -3.93 9.42 -8.9 c 0.03 -0.19 0.03 -0.37 0.03 -0.56 C 503.74 292.99 499.5 288.76 494.28 288.76 z M 494.28 304.26 c -1.31 0 -2.52 -0.41 -3.5 -1.12 c -1.53 -1.11 -2.53 -2.91 -2.53 -4.93 c 0 -3.33 2.7 -6.04 6.04 -6.04 c 3.33 0 6.06 2.71 6.06 6.04 c 0 0.65 -0.1 1.26 -0.29 1.85 C 499.27 302.49 496.97 304.26 494.28 304.26 z" stroke-linecap="round" />
</g>
		<g transform="matrix(1 0 0 1 -158.85 -0.13)" id="Layer_1"  >
<polygon style="stroke: none; stroke-width: 1; stroke-dasharray: none; stroke-linecap: butt; stroke-dashoffset: 0; stroke-linejoin: miter; stroke-miterlimit: 4; is-custom-font: none; font-file-url: none; fill: rgb(8,31,45); fill-rule: nonzero; opacity: 1;"  points="-23.735,-62.38 -34.285,-62.38 -34.285,62.38 34.285,62.38 34.285,52.71 -23.735,52.71 -23.735,-62.38 " />
</g>
		<g transform="matrix(1 0 0 1 158.81 1.985)" id="Layer_1"  >
<path style="stroke: none; stroke-width: 1; stroke-dasharray: none; stroke-linecap: butt; stroke-dashoffset: 0; stroke-linejoin: miter; stroke-miterlimit: 4; is-custom-font: none; font-file-url: none; fill: rgb(8,31,45); fill-rule: nonzero; opacity: 1;"  transform=" translate(-579.755, -299.625)" d="M 546.14 341.76 h 9.43 c 3.66 9.42 12.24 14.07 23.77 14.07 c 14.91 0 25.32 -7.31 25.32 -25.46 v -21.85 c -4.92 9.99 -14.21 15.33 -26.31 15.33 c -18.57 0 -32.92 -11.25 -32.92 -35.03 v -53.69 h 9.43 v 53.69 c 0 17.16 9.85 26.31 24.9 26.31 c 14.91 0 24.9 -9.28 24.9 -26.31 v -53.69 h 9.42 v 94.95 c 0 24.2 -15.33 34.04 -34.75 34.04 C 563.58 364.12 550.5 356.81 546.14 341.76 z" stroke-linecap="round" />
</g>
		<g transform="matrix(1 0 0 1 -118.775 -1.4812)" id="Layer_1"  >
<path style="stroke: none; stroke-width: 1; stroke-dasharray: none; stroke-linecap: butt; stroke-dashoffset: 0; stroke-linejoin: miter; stroke-miterlimit: 4; is-custom-font: none; font-file-url: none; fill: rgb(104,60,17); fill-rule: nonzero; opacity: 1;"  transform=" translate(-302.17, -296.1589)" d="M 316.3 280.48 c -10.38 7.98 -19.03 10.48 -42.11 7.02 c -1.87 -0.28 -3.72 -0.37 -5.53 -0.31 c 3.11 15.48 16.79 27.14 33.19 27.14 c 18.31 0 33.22 -14.53 33.83 -32.69 C 328.55 278.11 321.96 276.12 316.3 280.48 z" stroke-linecap="round" />
</g>
		<g transform="matrix(1 0 0 1 -115.695 -32.28)" id="Layer_1"  >
<path style="stroke: none; stroke-width: 1; stroke-dasharray: none; stroke-linecap: butt; stroke-dashoffset: 0; stroke-linejoin: miter; stroke-miterlimit: 4; is-custom-font: none; font-file-url: none; fill: rgb(147,96,55); fill-rule: nonzero; opacity: 1;"  transform=" translate(-305.25, -265.36)" d="M 300.73 284.71 c 0 0 0.04 -0.03 0.1 -0.08 c 0.07 -0.05 0.16 -0.14 0.29 -0.24 c 0.13 -0.11 0.28 -0.24 0.45 -0.41 c 0.09 -0.08 0.18 -0.17 0.28 -0.26 c 0.1 -0.09 0.2 -0.19 0.31 -0.3 c 0.43 -0.43 0.94 -0.97 1.48 -1.62 c 0.54 -0.65 1.11 -1.4 1.66 -2.27 c 0.13 -0.22 0.28 -0.43 0.41 -0.66 c 0.07 -0.11 0.14 -0.23 0.2 -0.35 c 0.07 -0.12 0.13 -0.24 0.2 -0.36 c 0.06 -0.12 0.13 -0.24 0.2 -0.36 c 0.06 -0.12 0.13 -0.25 0.19 -0.38 c 0.13 -0.25 0.24 -0.51 0.36 -0.78 c 0.47 -1.06 0.88 -2.2 1.18 -3.42 c 0.3 -1.21 0.51 -2.49 0.6 -3.8 c 0.01 -0.16 0.02 -0.33 0.03 -0.49 l 0.01 -0.25 l 0.01 -0.12 c 0 -0.04 0 -0.08 0 -0.12 c 0 -0.33 0.01 -0.65 0.01 -0.98 c 0 -0.17 -0.01 -0.35 -0.01 -0.53 c -0.01 -0.16 -0.02 -0.32 -0.02 -0.48 l -0.04 -0.49 l -0.05 -0.49 c -0.07 -0.65 -0.19 -1.28 -0.35 -1.9 c -0.08 -0.31 -0.17 -0.61 -0.27 -0.91 c -0.1 -0.3 -0.21 -0.59 -0.34 -0.88 c -0.24 -0.58 -0.54 -1.13 -0.86 -1.66 c -0.33 -0.53 -0.69 -1.04 -1.08 -1.53 c -0.77 -0.98 -1.64 -1.89 -2.45 -2.81 c -0.41 -0.46 -0.81 -0.91 -1.18 -1.37 c -0.37 -0.46 -0.72 -0.93 -1.02 -1.4 c -0.3 -0.47 -0.56 -0.94 -0.78 -1.4 c -0.21 -0.46 -0.39 -0.92 -0.51 -1.35 c -0.13 -0.43 -0.22 -0.85 -0.28 -1.23 c -0.05 -0.38 -0.09 -0.73 -0.1 -1.05 c 0 -0.08 -0.01 -0.16 -0.01 -0.23 c 0 -0.07 0 -0.15 0 -0.22 c 0 -0.14 0 -0.27 0.01 -0.39 c 0 -0.24 0.03 -0.45 0.04 -0.62 c 0.02 -0.17 0.04 -0.29 0.05 -0.38 c 0.01 -0.09 0.02 -0.13 0.02 -0.13 s 0.03 0.18 0.08 0.5 c 0.06 0.33 0.15 0.8 0.31 1.39 c 0.02 0.07 0.04 0.15 0.06 0.22 c 0.02 0.08 0.05 0.15 0.07 0.23 c 0.01 0.04 0.03 0.08 0.04 0.12 c 0.01 0.04 0.03 0.08 0.04 0.12 c 0.03 0.08 0.06 0.17 0.09 0.25 c 0.13 0.34 0.28 0.69 0.47 1.06 c 0.37 0.73 0.89 1.49 1.55 2.25 c 0.17 0.19 0.34 0.38 0.52 0.57 c 0.18 0.19 0.37 0.38 0.57 0.57 c 0.4 0.38 0.82 0.77 1.27 1.17 c 0.89 0.8 1.87 1.67 2.81 2.7 c 0.47 0.52 0.92 1.08 1.34 1.68 c 0.21 0.3 0.41 0.62 0.6 0.94 c 0.18 0.33 0.36 0.66 0.52 1.01 c 0.16 0.34 0.3 0.7 0.44 1.06 c 0.13 0.36 0.25 0.72 0.35 1.09 c 0.2 0.74 0.34 1.49 0.43 2.24 l 0.06 0.56 l 0.04 0.56 c 0.01 0.19 0.01 0.39 0.02 0.58 c 0 0.18 0 0.35 0 0.53 l 0 0.08 l 0 0.07 l 0 0.14 l -0.01 0.28 c -0.01 0.18 -0.01 0.37 -0.02 0.55 c 0 0.05 0 0.09 -0.01 0.14 l -0.01 0.14 l -0.02 0.27 c -0.02 0.18 -0.03 0.37 -0.05 0.55 c -0.15 1.46 -0.46 2.87 -0.89 4.2 c -0.43 1.33 -1 2.56 -1.64 3.65 c -0.16 0.27 -0.32 0.54 -0.49 0.8 c -0.08 0.13 -0.17 0.26 -0.25 0.38 c -0.08 0.13 -0.18 0.25 -0.26 0.37 c -0.09 0.12 -0.17 0.24 -0.26 0.36 c -0.09 0.11 -0.18 0.23 -0.27 0.34 c -0.17 0.23 -0.36 0.44 -0.54 0.65 c -0.04 0.05 -0.09 0.1 -0.13 0.15 c -0.05 0.05 -0.09 0.1 -0.14 0.15 c -0.09 0.1 -0.18 0.2 -0.27 0.29 c -0.18 0.19 -0.36 0.37 -0.54 0.55 c -0.18 0.17 -0.36 0.34 -0.53 0.49 c -0.18 0.15 -0.35 0.31 -0.52 0.45 c -0.68 0.56 -1.31 1 -1.84 1.33 c -0.27 0.17 -0.51 0.31 -0.72 0.42 c -0.21 0.12 -0.4 0.21 -0.55 0.28 c -0.15 0.07 -0.27 0.12 -0.35 0.16 C 300.77 284.7 300.73 284.71 300.73 284.71 z" stroke-linecap="round" />
</g>
		<g transform="matrix(1 0 0 1 -111.4479 -42.9)" id="Layer_1"  >
<path style="stroke: none; stroke-width: 1; stroke-dasharray: none; stroke-linecap: butt; stroke-dashoffset: 0; stroke-linejoin: miter; stroke-miterlimit: 4; is-custom-font: none; font-file-url: none; fill: rgb(147,96,55); fill-rule: nonzero; opacity: 1;"  transform=" translate(-309.4971, -254.74)" d="M 314.27 227.75 c -0.03 0.08 -0.08 0.16 -0.12 0.24 c -0.04 0.08 -0.09 0.16 -0.14 0.25 c -0.05 0.08 -0.1 0.17 -0.16 0.26 c -0.06 0.09 -0.12 0.17 -0.18 0.26 c -0.26 0.35 -0.56 0.73 -0.93 1.1 c -0.37 0.38 -0.8 0.76 -1.27 1.17 c -0.95 0.81 -2.09 1.67 -3.32 2.73 c -0.61 0.53 -1.24 1.12 -1.86 1.78 c -0.62 0.67 -1.23 1.41 -1.77 2.26 c -0.54 0.85 -1.02 1.8 -1.37 2.82 l -0.07 0.19 l -0.06 0.2 c -0.04 0.13 -0.08 0.26 -0.12 0.39 c -0.07 0.26 -0.13 0.53 -0.19 0.8 c -0.03 0.14 -0.05 0.27 -0.08 0.41 c -0.02 0.14 -0.04 0.27 -0.07 0.41 c -0.02 0.14 -0.04 0.28 -0.05 0.41 c -0.01 0.07 -0.02 0.14 -0.02 0.21 l -0.02 0.22 c -0.01 0.15 -0.02 0.31 -0.03 0.42 l -0.01 0.18 l -0.01 0.09 l 0 0.05 l 0 0.08 c 0 0.14 0 0.28 -0.01 0.42 c 0 0.14 0.01 0.28 0.01 0.43 c 0.02 0.57 0.07 1.16 0.17 1.75 c 0.1 0.59 0.24 1.18 0.44 1.77 c 0.2 0.58 0.44 1.15 0.72 1.7 c 0.28 0.55 0.61 1.07 0.96 1.55 c 0.35 0.49 0.72 0.94 1.1 1.37 c 0.75 0.86 1.53 1.62 2.26 2.35 c 0.73 0.72 1.4 1.42 1.99 2.13 l 0.22 0.27 l 0.21 0.27 c 0.07 0.09 0.13 0.18 0.2 0.27 c 0.06 0.09 0.13 0.18 0.19 0.27 c 0.25 0.37 0.47 0.74 0.67 1.13 c 0.4 0.77 0.71 1.58 0.93 2.42 c 0.11 0.42 0.21 0.85 0.27 1.29 c 0.01 0.05 0.02 0.11 0.03 0.16 l 0.02 0.16 c 0.01 0.11 0.03 0.22 0.05 0.33 c 0.01 0.11 0.02 0.22 0.04 0.33 c 0.01 0.06 0.01 0.11 0.02 0.16 l 0.01 0.16 c 0.02 0.19 0.03 0.46 0.05 0.7 l 0 0.05 l 0 0.02 c 0 0 0 0 0 0 c 0 0 0 -0.02 0 -0.02 c 0 0 0 0 0 0.01 l 0 0.08 l 0 0.17 c 0 0.11 0.01 0.22 0.01 0.34 c 0 0.22 0.01 0.45 0.01 0.67 c 0 0.22 -0.01 0.44 -0.01 0.66 c 0 0.11 -0.01 0.22 -0.02 0.33 c -0.01 0.11 -0.01 0.22 -0.02 0.32 c -0.01 0.22 -0.02 0.43 -0.05 0.64 c -0.02 0.21 -0.05 0.42 -0.07 0.63 c -0.03 0.21 -0.06 0.42 -0.09 0.62 c -0.02 0.1 -0.03 0.21 -0.05 0.31 c -0.02 0.1 -0.04 0.2 -0.06 0.3 c -0.04 0.2 -0.08 0.4 -0.12 0.6 c -0.05 0.2 -0.1 0.39 -0.14 0.59 c -0.02 0.1 -0.04 0.2 -0.07 0.29 c -0.03 0.1 -0.05 0.19 -0.08 0.29 c -0.03 0.1 -0.05 0.19 -0.08 0.28 c -0.03 0.09 -0.05 0.19 -0.08 0.28 c -0.06 0.19 -0.12 0.37 -0.18 0.55 c -0.03 0.09 -0.06 0.18 -0.1 0.27 c -0.03 0.09 -0.07 0.18 -0.1 0.27 c -0.03 0.09 -0.07 0.18 -0.1 0.26 c -0.03 0.09 -0.07 0.17 -0.11 0.26 c -0.07 0.17 -0.14 0.34 -0.21 0.51 c -0.08 0.17 -0.15 0.33 -0.23 0.49 c -0.04 0.08 -0.07 0.16 -0.11 0.24 c -0.04 0.08 -0.08 0.16 -0.12 0.23 c -0.08 0.15 -0.15 0.31 -0.24 0.46 c -0.32 0.6 -0.66 1.16 -1 1.68 c -0.34 0.51 -0.68 0.99 -1.01 1.41 c -0.33 0.43 -0.65 0.81 -0.95 1.15 c -0.3 0.34 -0.58 0.63 -0.83 0.89 c -0.12 0.13 -0.24 0.24 -0.35 0.35 c -0.11 0.11 -0.21 0.2 -0.3 0.28 c -0.36 0.33 -0.57 0.5 -0.57 0.5 s 0.06 -0.02 0.18 -0.07 c 0.12 -0.05 0.3 -0.12 0.52 -0.23 c 0.22 -0.11 0.5 -0.25 0.82 -0.43 c 0.08 -0.04 0.16 -0.09 0.25 -0.14 c 0.08 -0.05 0.17 -0.1 0.26 -0.16 c 0.18 -0.11 0.37 -0.23 0.56 -0.36 c 0.2 -0.13 0.4 -0.27 0.61 -0.43 c 0.11 -0.08 0.21 -0.16 0.32 -0.24 c 0.11 -0.08 0.22 -0.17 0.33 -0.26 c 0.11 -0.09 0.22 -0.18 0.34 -0.28 c 0.11 -0.1 0.23 -0.2 0.34 -0.3 c 0.24 -0.2 0.46 -0.43 0.7 -0.66 c 0.23 -0.24 0.48 -0.48 0.71 -0.75 c 0.06 -0.07 0.12 -0.13 0.18 -0.2 c 0.06 -0.07 0.12 -0.13 0.18 -0.21 c 0.12 -0.14 0.24 -0.28 0.36 -0.43 c 0.06 -0.07 0.12 -0.15 0.18 -0.22 c 0.06 -0.08 0.12 -0.15 0.17 -0.23 c 0.06 -0.08 0.12 -0.16 0.18 -0.23 c 0.06 -0.08 0.11 -0.16 0.17 -0.24 c 0.11 -0.16 0.23 -0.33 0.34 -0.5 c 0.11 -0.17 0.22 -0.35 0.33 -0.52 c 0.43 -0.71 0.86 -1.48 1.22 -2.31 c 0.05 -0.1 0.09 -0.21 0.14 -0.31 c 0.05 -0.1 0.09 -0.21 0.13 -0.32 c 0.08 -0.22 0.17 -0.43 0.25 -0.65 c 0.08 -0.22 0.15 -0.45 0.23 -0.67 c 0.04 -0.11 0.08 -0.23 0.11 -0.34 c 0.03 -0.12 0.06 -0.23 0.1 -0.35 c 0.03 -0.12 0.06 -0.23 0.1 -0.35 l 0.05 -0.18 c 0.02 -0.06 0.03 -0.12 0.05 -0.18 c 0.05 -0.24 0.11 -0.48 0.16 -0.72 c 0.06 -0.24 0.1 -0.49 0.14 -0.74 c 0.02 -0.12 0.04 -0.25 0.06 -0.37 c 0.02 -0.13 0.04 -0.25 0.06 -0.38 c 0.06 -0.5 0.13 -1.02 0.15 -1.53 c 0.01 -0.13 0.02 -0.26 0.03 -0.39 l 0.01 -0.2 l 0.01 -0.1 l 0 -0.12 c 0.01 -0.25 0.02 -0.47 0.01 -0.77 l 0 -0.21 c 0 -0.07 0 -0.14 0 -0.21 c 0 -0.14 -0.01 -0.27 -0.01 -0.41 c 0 -0.14 -0.02 -0.27 -0.02 -0.41 c -0.01 -0.14 -0.02 -0.28 -0.03 -0.41 c -0.05 -0.55 -0.13 -1.12 -0.25 -1.68 c -0.11 -0.56 -0.26 -1.13 -0.44 -1.69 c -0.18 -0.56 -0.41 -1.11 -0.66 -1.65 c -0.25 -0.54 -0.55 -1.06 -0.87 -1.57 c -0.08 -0.13 -0.16 -0.25 -0.24 -0.37 c -0.08 -0.12 -0.17 -0.24 -0.25 -0.36 l -0.26 -0.35 l -0.27 -0.35 c -0.72 -0.91 -1.51 -1.72 -2.26 -2.48 c -0.76 -0.75 -1.48 -1.46 -2.12 -2.15 c -0.32 -0.35 -0.61 -0.7 -0.88 -1.05 c -0.27 -0.35 -0.5 -0.7 -0.71 -1.07 c -0.21 -0.36 -0.38 -0.73 -0.53 -1.11 c -0.15 -0.38 -0.27 -0.77 -0.36 -1.17 c -0.09 -0.4 -0.16 -0.82 -0.2 -1.24 c -0.01 -0.11 -0.02 -0.21 -0.03 -0.32 c -0.01 -0.11 -0.01 -0.21 -0.02 -0.32 l 0 -0.02 c 0 -0.01 0 -0.01 0 -0.01 c 0 0 0 0.02 0 0.02 c 0 0 0 0 0 0 l 0 -0.05 l 0 -0.09 l 0 -0.19 c 0 -0.13 0 -0.22 0 -0.32 l 0 -0.15 c 0 0 0 0 0 0 h 0 l 0 0 c 0 -0.05 0 -0.1 0.01 -0.16 c 0.01 -0.1 0.01 -0.21 0.01 -0.31 c 0.01 -0.1 0.01 -0.21 0.02 -0.31 c 0.01 -0.1 0.02 -0.21 0.03 -0.31 c 0.03 -0.2 0.05 -0.41 0.09 -0.61 c 0.01 -0.1 0.04 -0.2 0.06 -0.3 l 0.03 -0.15 l 0.03 -0.15 c 0.09 -0.39 0.21 -0.78 0.34 -1.16 c 0.13 -0.38 0.29 -0.74 0.46 -1.1 c 0.35 -0.72 0.76 -1.4 1.21 -2.05 c 0.45 -0.65 0.94 -1.26 1.42 -1.85 c 0.98 -1.18 1.96 -2.26 2.77 -3.31 c 0.81 -1.04 1.44 -2.07 1.78 -2.98 c 0.18 -0.45 0.28 -0.88 0.34 -1.25 c 0.01 -0.09 0.03 -0.18 0.04 -0.27 c 0.01 -0.09 0.02 -0.17 0.02 -0.25 c 0.01 -0.16 0.01 -0.3 0.01 -0.43 c 0 -0.06 0 -0.12 0 -0.18 c 0 -0.06 -0.01 -0.11 -0.01 -0.16 c 0 -0.05 -0.01 -0.09 -0.01 -0.13 c -0.01 -0.04 -0.01 -0.08 -0.01 -0.11 c -0.02 -0.13 -0.03 -0.19 -0.03 -0.19 s -0.01 0.07 -0.04 0.19 c -0.01 0.03 -0.01 0.07 -0.02 0.1 c -0.01 0.04 -0.02 0.08 -0.03 0.13 c -0.01 0.05 -0.02 0.09 -0.04 0.15 c 0 0 0 0 0 0 h 0 h 0 c -0.01 0.05 -0.03 0.11 -0.05 0.17 C 314.52 227.16 314.42 227.44 314.27 227.75 z" stroke-linecap="round" />
</g>
		<g transform="matrix(1 0 0 1 -114.8 -53.1)" id="Layer_1"  >
<polygon style="stroke: none; stroke-width: 1; stroke-dasharray: none; stroke-linecap: butt; stroke-dashoffset: 0; stroke-linejoin: miter; stroke-miterlimit: 4; is-custom-font: none; font-file-url: none; fill: none; fill-rule: nonzero; opacity: 1;"  points="-0.005,0 -0.005,0 0.005,0 " />
</g>
		<g transform="matrix(1 0 0 1 -118.775 -18.04)" id="Layer_1"  >
<path style="stroke: none; stroke-width: 1; stroke-dasharray: none; stroke-linecap: butt; stroke-dashoffset: 0; stroke-linejoin: miter; stroke-miterlimit: 4; is-custom-font: none; font-file-url: none; fill: rgb(8,31,45); fill-rule: nonzero; opacity: 1;"  transform=" translate(-302.17, -279.6)" d="M 311.05 235.59 c -0.14 0.16 -0.28 0.32 -0.42 0.49 c -0.55 0.66 -0.99 1.23 -1.37 1.78 c -0.46 0.66 -0.83 1.28 -1.13 1.91 c -0.16 0.33 -0.3 0.66 -0.42 1 c -0.12 0.34 -0.22 0.69 -0.31 1.05 l -0.06 0.27 c -0.02 0.12 -0.04 0.18 -0.05 0.24 c -0.04 0.22 -0.06 0.4 -0.09 0.59 l -0.02 0.29 c 17.9 2.45 31.73 17.83 31.73 36.39 c 0 20.26 -16.48 36.74 -36.74 36.74 s -36.74 -16.48 -36.74 -36.74 c 0 -20.06 16.16 -36.41 36.15 -36.73 c 0 -0.01 0 -0.01 0 -0.02 l 0.15 -0.84 c 0.07 -0.31 0.13 -0.6 0.21 -0.88 c 0.03 -0.12 0.07 -0.25 0.11 -0.39 l 0.15 -0.45 c 0.36 -1.05 0.85 -2.07 1.47 -3.04 c 0.53 -0.83 1.14 -1.61 1.88 -2.4 c 0 0 0.01 -0.01 0.01 -0.01 c -1.12 -0.08 -2.25 -0.14 -3.39 -0.14 c -24.8 0 -44.9 20.1 -44.9 44.9 s 20.1 44.9 44.9 44.9 c 24.8 0 44.9 -20.1 44.9 -44.9 C 347.07 257.84 331.59 239.71 311.05 235.59 z" stroke-linecap="round" />
</g>
</g>
</g>
</svg>