<svg version="1.1" id="Layer_1" xmlns="http://www.w3.org/2000/svg" xmlns:xlink="http://www.w3.org/1999/xlink" x="0px" y="0px"
	 width="100%" viewBox="0 0 512 512" enable-background="new 0 0 512 512" xml:space="preserve">
<path fill="#000000" opacity="1.000000" stroke="none" 
	d="
M328.000000,513.000000 
	C218.693222,513.000000 109.886436,513.000000 1.039827,513.000000 
	C1.039827,342.401520 1.039827,171.803040 1.039827,1.102281 
	C171.556793,1.102281 342.113647,1.102281 512.835266,1.102281 
	C512.835266,171.666534 512.835266,342.333252 512.835266,513.000000 
	C451.469696,513.000000 389.984833,513.000000 328.000000,513.000000 
M433.974518,299.025024 
	C432.939972,293.612152 430.951447,288.174500 431.091095,282.792084 
	C431.308868,274.398163 426.212830,267.457611 425.952148,259.357178 
	C425.942200,259.048859 425.860260,258.598785 425.650635,258.462128 
	C420.976593,255.415283 423.260803,249.563904 420.258270,245.485138 
	C417.381805,241.577652 416.486176,236.217392 414.689453,231.507263 
	C413.877594,229.378906 413.229675,227.140549 412.097107,225.190399 
	C407.866150,217.905197 403.496735,210.699539 399.119354,203.500488 
	C394.818115,196.426682 390.767456,189.169144 386.005768,182.416092 
	C381.738037,176.363602 376.787933,170.768906 371.891327,165.189484 
	C366.466187,159.007812 361.100647,152.703751 355.073883,147.141235 
	C349.793152,142.267303 343.588257,138.403946 337.875061,133.986252 
	C333.426300,130.546265 329.889069,125.103096 322.826538,127.868744 
	C322.826538,130.496719 322.406708,133.440964 322.960999,136.188736 
	C323.394775,138.339111 325.859009,140.197388 325.981354,142.270401 
	C326.306763,147.786057 332.121521,151.642014 330.348328,157.649918 
	C330.292358,157.839630 330.788910,158.140564 330.892883,158.437012 
	C332.934723,164.256683 335.687897,169.947586 336.800873,175.942337 
	C338.258118,183.791687 338.457184,191.878845 339.112000,199.870697 
	C339.342010,202.677994 339.507904,205.514999 339.373627,208.322678 
	C339.075867,214.548782 338.569611,220.764923 338.132996,227.211884 
	C334.584930,227.211884 332.048096,227.220062 329.511353,227.210129 
	C324.656830,227.191116 320.552216,225.141815 316.069336,223.498062 
	C307.151672,220.228271 300.838104,214.261597 294.575287,208.025650 
	C290.338165,203.806717 286.491089,198.937805 283.548492,193.747894 
	C280.451324,188.285309 275.564819,183.423965 275.866821,176.370712 
	C275.897766,175.647964 275.504944,174.627625 274.955200,174.202438 
	C269.089813,169.665924 271.280823,162.426956 269.123077,156.646042 
	C268.178131,154.114380 269.114563,150.927917 268.931396,148.055710 
	C268.356445,139.039490 267.419739,130.039780 267.095306,121.016701 
	C266.912445,115.931366 267.524933,110.799820 268.014526,105.711746 
	C268.928253,96.215195 269.976166,86.730843 271.068085,77.252914 
	C271.232086,75.829613 271.512054,73.792526 272.463715,73.195435 
	C276.633362,70.579308 275.519897,66.504105 276.076904,62.761608 
	C276.853180,57.545666 278.111847,52.401073 279.194824,47.232395 
	C279.255463,46.943104 279.544525,46.624317 279.813629,46.467670 
	C283.746033,44.178715 282.924774,40.321812 282.852966,36.819408 
	C282.834595,35.923889 281.342682,34.226551 281.225677,34.285389 
	C277.082336,36.369057 271.173096,32.819843 268.088715,38.705994 
	C266.802460,41.160664 264.203888,42.962738 262.090546,44.942554 
	C254.905930,51.673271 247.510666,58.187958 240.509384,65.102623 
	C235.306061,70.241570 230.227615,75.591972 225.746841,81.356041 
	C220.153946,88.550743 215.077271,96.165413 210.071838,103.791809 
	C206.502457,109.230240 203.371902,114.960548 200.135727,120.612259 
	C198.395279,123.651833 196.403488,126.652229 195.303986,129.931458 
	C193.249756,136.057983 193.980652,143.076706 189.107162,148.351471 
	C188.442184,149.071213 189.044342,150.933487 189.001740,152.264923 
	C188.964661,153.423233 189.304520,155.018921 188.686920,155.663284 
	C185.076614,159.430115 186.276031,164.056335 185.978760,168.442215 
	C185.812775,170.891327 185.943939,173.602112 184.932098,175.710739 
	C180.416855,185.120316 181.632309,194.863556 183.073822,204.508636 
	C184.696716,215.367355 187.241653,226.087219 188.912216,236.940323 
	C189.696915,242.038254 188.192520,247.532181 192.580078,251.817368 
	C193.296417,252.517014 192.993988,254.359161 192.997467,255.673706 
	C193.029144,267.664734 192.502899,279.688354 193.246521,291.633514 
	C193.627533,297.753723 189.663437,301.125580 187.449112,305.643768 
	C186.655426,307.263214 185.737701,308.926788 184.499939,310.205688 
	C178.848770,316.044434 171.538361,316.207886 164.073807,316.094269 
	C156.251389,315.975250 145.520874,307.299652 143.926773,299.735138 
	C142.927612,294.993835 141.310699,290.381897 140.331192,285.637543 
	C139.021912,279.295868 137.634048,272.920074 137.062759,266.489410 
	C136.386566,258.877777 135.735764,251.148804 138.916428,243.746918 
	C139.660828,242.014587 140.191132,239.803040 139.764832,238.071762 
	C139.393051,236.561890 137.212219,234.134766 136.390518,234.341187 
	C133.311432,235.114777 129.697586,236.094254 127.672195,238.281708 
	C122.006180,244.401123 116.806053,250.995560 111.868713,257.729980 
	C108.806854,261.906311 106.470978,266.631317 103.979050,271.202637 
	C102.587883,273.754639 102.253448,277.510284 100.199951,278.946533 
	C95.533150,282.210571 95.184647,287.614136 93.595009,291.822479 
	C90.552261,299.877777 89.789062,308.788727 88.010498,317.330170 
	C87.485779,319.850067 86.239197,322.307007 86.165413,324.817566 
	C85.911186,333.468079 85.501411,342.173035 86.209091,350.770111 
	C86.615089,355.702271 84.188614,361.001892 87.965553,365.748352 
	C89.358345,367.498688 89.569107,370.264374 90.091156,372.617523 
	C91.242645,377.807861 91.363419,383.430084 93.496651,388.157776 
	C98.163902,398.501373 103.573944,408.539551 109.203964,418.403748 
	C111.324486,422.119049 115.009132,424.914124 117.751122,428.313934 
	C119.097946,429.983765 119.508247,432.549500 121.052269,433.895355 
	C127.655052,439.650848 134.227753,445.523468 141.384033,450.535828 
	C147.376221,454.732849 154.291428,457.960541 161.812943,457.729614 
	C167.037689,457.569183 172.214462,455.839417 177.411057,454.802765 
	C177.559921,454.773071 177.694962,454.658844 177.829086,454.572571 
	C182.795471,451.378021 187.907532,448.384003 192.679108,444.920898 
	C196.327591,442.272888 199.786011,439.261078 202.898468,436.000214 
	C207.622650,431.050751 212.268005,425.968842 216.403381,420.529999 
	C220.887497,414.632477 224.989868,408.406525 228.812408,402.055176 
	C232.458725,395.996674 235.661270,389.657257 238.806595,383.316162 
	C240.761185,379.375641 242.748062,375.329773 243.822586,371.102936 
	C245.369598,365.017548 246.146103,358.732208 247.168198,352.518463 
	C248.716980,343.102600 251.082413,333.714478 251.503662,324.243500 
	C252.222366,308.084106 251.701752,291.869598 251.701752,275.418488 
	C255.667435,279.759827 259.739380,283.245636 262.567413,287.548920 
	C266.476715,293.497467 269.835144,299.891846 272.706207,306.413666 
	C275.223389,312.131531 278.835846,317.173615 280.780457,323.400787 
	C282.721497,329.616364 286.969269,335.168030 287.714874,342.101196 
	C288.082184,345.516876 289.908142,348.812561 290.060272,352.207947 
	C290.638611,365.117004 290.608673,378.032898 287.757111,390.754913 
	C287.265106,392.949951 286.961884,395.219421 286.188538,397.312988 
	C284.258606,402.537659 282.128815,407.689148 280.039795,412.854065 
	C278.455688,416.770508 276.781494,420.650574 275.204926,424.569977 
	C274.356995,426.677948 273.630066,428.834625 272.219177,431.329559 
	C269.849213,436.265930 267.479248,441.202271 265.002930,446.738007 
	C265.038513,447.140686 265.074097,447.543365 264.958405,448.667206 
	C264.349579,450.131012 263.740784,451.594849 263.034271,453.877319 
	C262.761230,455.243866 262.658203,456.672516 262.185394,457.966064 
	C260.227692,463.322449 258.158173,468.637939 256.003601,474.837494 
	C256.765259,477.860413 253.758667,482.693573 260.053528,483.524200 
	C260.053528,483.524200 260.159515,483.945312 260.005005,484.499268 
	C260.041290,484.687500 260.077606,484.875732 260.275146,485.766205 
	C264.155701,487.120911 268.047974,489.625641 271.914307,489.586182 
	C279.497864,489.508850 287.068146,488.024597 294.640686,487.096069 
	C295.765594,486.958130 296.962219,486.877655 297.973846,486.428558 
	C304.940216,483.336029 311.829041,480.066620 318.824127,477.042084 
	C321.490479,475.889191 324.586060,475.631958 327.114288,474.274261 
	C335.759979,469.631348 344.282990,464.753967 352.767181,459.818817 
	C357.390015,457.129822 361.879913,454.204742 366.357361,451.275421 
	C371.125458,448.156067 376.019958,445.171997 380.463531,441.632111 
	C384.289642,438.584167 387.782440,435.033295 391.015045,431.347321 
	C394.598206,427.261597 397.902344,422.897034 400.995087,418.423737 
	C405.032867,412.583466 409.131256,406.725342 412.481628,400.487122 
	C415.566986,394.742401 417.828888,388.536102 420.211212,382.438477 
	C422.631409,376.244019 424.713684,369.918335 427.030853,363.682404 
	C427.889313,361.371979 429.029480,359.167633 429.971466,356.886139 
	C430.403168,355.840454 430.841217,354.746826 430.978058,353.638123 
	C431.941528,345.833344 432.827271,338.018982 433.514496,329.248993 
	C433.682617,324.812866 433.965027,320.377380 433.989563,315.940460 
	C434.019348,310.558716 433.831390,305.175812 433.974518,299.025024 
z"/>
<path fill="#EC8900" opacity="1.000000" stroke="none" 
	d="
M265.109680,447.946045 
	C265.074097,447.543365 265.038513,447.140686 265.417358,446.378082 
	C270.582916,443.923645 274.468536,435.590210 272.848572,430.969299 
	C273.630066,428.834625 274.356995,426.677948 275.204926,424.569977 
	C276.781494,420.650574 278.455688,416.770508 280.039795,412.854065 
	C282.128815,407.689148 284.258606,402.537659 286.188538,397.312988 
	C286.961884,395.219421 287.265106,392.949951 287.757111,390.754913 
	C290.608673,378.032898 290.638611,365.117004 290.060272,352.207947 
	C289.908142,348.812561 288.082184,345.516876 287.714874,342.101196 
	C286.969269,335.168030 282.721497,329.616364 280.780457,323.400787 
	C278.835846,317.173615 275.223389,312.131531 272.706207,306.413666 
	C269.835144,299.891846 266.476715,293.497467 262.567413,287.548920 
	C259.739380,283.245636 255.667435,279.759827 251.701752,275.418488 
	C251.701752,291.869598 252.222366,308.084106 251.503662,324.243500 
	C251.082413,333.714478 248.716980,343.102600 247.168198,352.518463 
	C246.146103,358.732208 245.369598,365.017548 243.822586,371.102936 
	C242.748062,375.329773 240.761185,379.375641 238.806595,383.316162 
	C235.661270,389.657257 232.458725,395.996674 228.812408,402.055176 
	C224.989868,408.406525 220.887497,414.632477 216.403381,420.529999 
	C212.268005,425.968842 207.622650,431.050751 202.898468,436.000214 
	C199.786011,439.261078 196.327591,442.272888 192.679108,444.920898 
	C187.907532,448.384003 182.795471,451.378021 177.829086,454.572571 
	C177.694962,454.658844 177.559921,454.773071 177.411057,454.802765 
	C172.214462,455.839417 167.037689,457.569183 161.812943,457.729614 
	C154.291428,457.960541 147.376221,454.732849 141.384033,450.535828 
	C134.227753,445.523468 127.655052,439.650848 121.052269,433.895355 
	C119.508247,432.549500 119.097946,429.983765 117.751122,428.313934 
	C115.009132,424.914124 111.324486,422.119049 109.203964,418.403748 
	C103.573944,408.539551 98.163902,398.501373 93.496651,388.157776 
	C91.363419,383.430084 91.242645,377.807861 90.091156,372.617523 
	C89.569107,370.264374 89.358345,367.498688 87.965553,365.748352 
	C84.188614,361.001892 86.615089,355.702271 86.209091,350.770111 
	C85.501411,342.173035 85.911186,333.468079 86.165413,324.817566 
	C86.239197,322.307007 87.485779,319.850067 88.010498,317.330170 
	C89.789062,308.788727 90.552261,299.877777 93.595009,291.822479 
	C95.184647,287.614136 95.533150,282.210571 100.199951,278.946533 
	C102.253448,277.510284 102.587883,273.754639 103.979050,271.202637 
	C106.470978,266.631317 108.806854,261.906311 111.868713,257.729980 
	C116.806053,250.995560 122.006180,244.401123 127.672195,238.281708 
	C129.697586,236.094254 133.311432,235.114777 136.390518,234.341187 
	C137.212219,234.134766 139.393051,236.561890 139.764832,238.071762 
	C140.191132,239.803040 139.660828,242.014587 138.916428,243.746918 
	C135.735764,251.148804 136.386566,258.877777 137.062759,266.489410 
	C137.634048,272.920074 139.021912,279.295868 140.331192,285.637543 
	C141.310699,290.381897 142.927612,294.993835 143.926773,299.735138 
	C145.520874,307.299652 156.251389,315.975250 164.073807,316.094269 
	C171.538361,316.207886 178.848770,316.044434 184.499939,310.205688 
	C185.737701,308.926788 186.655426,307.263214 187.449112,305.643768 
	C189.663437,301.125580 193.627533,297.753723 193.246521,291.633514 
	C192.502899,279.688354 193.029144,267.664734 192.997467,255.673706 
	C192.993988,254.359161 193.296417,252.517014 192.580078,251.817368 
	C188.192520,247.532181 189.696915,242.038254 188.912216,236.940323 
	C187.241653,226.087219 184.696716,215.367355 183.073822,204.508636 
	C181.632309,194.863556 180.416855,185.120316 184.932098,175.710739 
	C185.943939,173.602112 185.812775,170.891327 185.978760,168.442215 
	C186.276031,164.056335 185.076614,159.430115 188.686920,155.663284 
	C189.304520,155.018921 188.964661,153.423233 189.001740,152.264923 
	C189.044342,150.933487 188.442184,149.071213 189.107162,148.351471 
	C193.980652,143.076706 193.249756,136.057983 195.303986,129.931458 
	C196.403488,126.652229 198.395279,123.651833 200.135727,120.612259 
	C203.371902,114.960548 206.502457,109.230240 210.071838,103.791809 
	C215.077271,96.165413 220.153946,88.550743 225.746841,81.356041 
	C230.227615,75.591972 235.306061,70.241570 240.509384,65.102623 
	C247.510666,58.187958 254.905930,51.673271 262.090546,44.942554 
	C264.203888,42.962738 266.802460,41.160664 268.088715,38.705994 
	C271.173096,32.819843 277.082336,36.369057 281.225677,34.285389 
	C281.342682,34.226551 282.834595,35.923889 282.852966,36.819408 
	C282.924774,40.321812 283.746033,44.178715 279.813629,46.467670 
	C279.544525,46.624317 279.255463,46.943104 279.194824,47.232395 
	C278.111847,52.401073 276.853180,57.545666 276.076904,62.761608 
	C275.519897,66.504105 276.633362,70.579308 272.463715,73.195435 
	C271.512054,73.792526 271.232086,75.829613 271.068085,77.252914 
	C269.976166,86.730843 268.928253,96.215195 268.014526,105.711746 
	C267.524933,110.799820 266.912445,115.931366 267.095306,121.016701 
	C267.419739,130.039780 268.356445,139.039490 268.931396,148.055710 
	C269.114563,150.927917 268.178131,154.114380 269.123077,156.646042 
	C271.280823,162.426956 269.089813,169.665924 274.955200,174.202438 
	C275.504944,174.627625 275.897766,175.647964 275.866821,176.370712 
	C275.564819,183.423965 280.451324,188.285309 283.548492,193.747894 
	C286.491089,198.937805 290.338165,203.806717 294.575287,208.025650 
	C300.838104,214.261597 307.151672,220.228271 316.069336,223.498062 
	C320.552216,225.141815 324.656830,227.191116 329.511353,227.210129 
	C332.048096,227.220062 334.584930,227.211884 338.132996,227.211884 
	C338.569611,220.764923 339.075867,214.548782 339.373627,208.322678 
	C339.507904,205.514999 339.342010,202.677994 339.112000,199.870697 
	C338.457184,191.878845 338.258118,183.791687 336.800873,175.942337 
	C335.687897,169.947586 332.934723,164.256683 330.892883,158.437012 
	C330.788910,158.140564 330.292358,157.839630 330.348328,157.649918 
	C332.121521,151.642014 326.306763,147.786057 325.981354,142.270401 
	C325.859009,140.197388 323.394775,138.339111 322.960999,136.188736 
	C322.406708,133.440964 322.826538,130.496719 322.826538,127.868744 
	C329.889069,125.103096 333.426300,130.546265 337.875061,133.986252 
	C343.588257,138.403946 349.793152,142.267303 355.073883,147.141235 
	C361.100647,152.703751 366.466187,159.007812 371.891327,165.189484 
	C376.787933,170.768906 381.738037,176.363602 386.005768,182.416092 
	C390.767456,189.169144 394.818115,196.426682 399.119354,203.500488 
	C403.496735,210.699539 407.866150,217.905197 412.097107,225.190399 
	C413.229675,227.140549 413.877594,229.378906 414.689453,231.507263 
	C416.486176,236.217392 417.381805,241.577652 420.258270,245.485138 
	C423.260803,249.563904 420.976593,255.415283 425.650635,258.462128 
	C425.860260,258.598785 425.942200,259.048859 425.952148,259.357178 
	C426.212830,267.457611 431.308868,274.398163 431.091095,282.792084 
	C430.951447,288.174500 432.939972,293.612152 433.510010,299.527374 
	C432.464142,301.289490 431.409607,302.537933 431.379211,303.810852 
	C431.197662,311.416870 431.141876,319.031372 431.340332,326.635345 
	C431.371948,327.846161 432.901062,329.017883 433.737854,330.207703 
	C432.827271,338.018982 431.941528,345.833344 430.978058,353.638123 
	C430.841217,354.746826 430.403168,355.840454 429.971466,356.886139 
	C429.029480,359.167633 427.889313,361.371979 427.030853,363.682404 
	C424.713684,369.918335 422.631409,376.244019 420.211212,382.438477 
	C417.828888,388.536102 415.566986,394.742401 412.481628,400.487122 
	C409.131256,406.725342 405.032867,412.583466 400.995087,418.423737 
	C397.902344,422.897034 394.598206,427.261597 391.015045,431.347321 
	C387.782440,435.033295 384.289642,438.584167 380.463531,441.632111 
	C376.019958,445.171997 371.125458,448.156067 366.357361,451.275421 
	C361.879913,454.204742 357.390015,457.129822 352.767181,459.818817 
	C344.282990,464.753967 335.759979,469.631348 327.114288,474.274261 
	C324.586060,475.631958 321.490479,475.889191 318.824127,477.042084 
	C311.829041,480.066620 304.940216,483.336029 297.973846,486.428558 
	C296.962219,486.877655 295.765594,486.958130 294.640686,487.096069 
	C287.068146,488.024597 279.497864,489.508850 271.914307,489.586182 
	C268.047974,489.625641 264.155701,487.120911 260.284729,485.288757 
	C260.405701,484.497833 260.360748,484.209167 260.159515,483.945312 
	C260.159515,483.945312 260.053528,483.524200 259.938354,482.922424 
	C258.592041,479.536591 257.360870,476.752502 256.129700,473.968445 
	C258.158173,468.637939 260.227692,463.322449 262.185394,457.966064 
	C262.658203,456.672516 262.761230,455.243866 263.352356,453.292419 
	C264.929413,451.355865 268.374634,450.665070 265.109680,447.946045 
z"/>
<path fill="#F46600" opacity="1.000000" stroke="none" 
	d="
M433.626160,329.728333 
	C432.901062,329.017883 431.371948,327.846161 431.340332,326.635345 
	C431.141876,319.031372 431.197662,311.416870 431.379211,303.810852 
	C431.409607,302.537933 432.464142,301.289490 433.391541,299.911560 
	C433.831390,305.175812 434.019348,310.558716 433.989563,315.940460 
	C433.965027,320.377380 433.682617,324.812866 433.626160,329.728333 
z"/>
<path fill="#D66100" opacity="1.000000" stroke="none" 
	d="
M272.533875,431.149414 
	C274.468536,435.590210 270.582916,443.923645 265.470520,446.078400 
	C267.479248,441.202271 269.849213,436.265930 272.533875,431.149414 
z"/>
<path fill="#DD6600" opacity="1.000000" stroke="none" 
	d="
M256.066650,474.402954 
	C257.360870,476.752502 258.592041,479.536591 259.897461,482.709167 
	C253.758667,482.693573 256.765259,477.860413 256.066650,474.402954 
z"/>
<path fill="#D66100" opacity="1.000000" stroke="none" 
	d="
M265.034058,448.306641 
	C268.374634,450.665070 264.929413,451.355865 263.401245,452.883087 
	C263.740784,451.594849 264.349579,450.131012 265.034058,448.306641 
z"/>
<path fill="#DD6600" opacity="1.000000" stroke="none" 
	d="
M260.082275,484.222290 
	C260.360748,484.209167 260.405701,484.497833 260.204132,484.937622 
	C260.077606,484.875732 260.041290,484.687500 260.082275,484.222290 
z"/>
</svg>