<svg xmlns:mydata="http://www.w3.org/2000/svg" mydata:contrastcolor="ffffff" mydata:template="Contrast" mydata:presentation="2.5" mydata:layouttype="undefined" mydata:specialfontid="undefined" mydata:id1="612" mydata:id2="281" mydata:companyname="Kendini Dene" mydata:companytagline="Yapabilir misin görelim" version="1.1" xmlns="http://www.w3.org/2000/svg" xmlns:xlink="http://www.w3.org/1999/xlink" viewBox="0 0 550 470"><g fill="none" fill-rule="none" stroke="none" stroke-width="1" stroke-linecap="butt" stroke-linejoin="miter" stroke-miterlimit="10" stroke-dasharray="" stroke-dashoffset="0" font-family="none" font-weight="none" font-size="none" text-anchor="none" style="mix-blend-mode: normal"><g data-paper-data="{&quot;isGlobalGroup&quot;:true,&quot;bounds&quot;:{&quot;x&quot;:65,&quot;y&quot;:170.5633511468881,&quot;width&quot;:420,&quot;height&quot;:128.87329770622384}}"><g data-paper-data="{&quot;isSecondaryText&quot;:true}" fill="#e3e935" fill-rule="nonzero"><path d="M199.94334,281.17339c0.80311,0 1.05865,-0.62059 1.05865,-1.44195v-3.55925l3.1942,-7.33754c0.07301,-0.14602 0.09126,-0.31029 0.09126,-0.41981c0,-0.60234 -0.47457,-1.0769 -1.05865,-1.0769c-0.41981,0 -0.82137,0.23728 -0.98564,0.63884l-2.24507,5.34801c-0.01825,0.03651 -0.03651,0.05476 -0.05476,0.05476c-0.03651,0 -0.05476,-0.01825 -0.07301,-0.05476l-2.09905,-5.01946c-0.20078,-0.56583 -0.54758,-0.96739 -1.13166,-0.96739c-0.62059,0 -1.0404,0.51107 -1.0404,1.0769c0,0.10952 0,0.27379 0.09126,0.41981c1.05865,2.44585 2.1173,4.89169 3.1942,7.33754v3.55925c0,0.74836 0.27379,1.44195 1.05865,1.44195z" data-paper-data="{&quot;glyphName&quot;:&quot;Y&quot;,&quot;glyphIndex&quot;:0,&quot;firstGlyphOfWord&quot;:true,&quot;word&quot;:1}"></path><path d="M218.00123,280.13299c0,-0.14602 -0.03651,-0.27379 -0.07301,-0.3833c-2.19031,-5.95034 -3.39498,-9.12629 -4.30761,-11.42612c-0.20078,-0.60234 -0.54758,-0.93088 -1.18642,-0.93088c-0.52932,0 -0.83962,0.32855 -0.98564,0.71185l-4.21635,11.24359c-0.09126,0.20078 -0.21903,0.52932 -0.21903,0.71185c0,0.54758 0.40156,1.11341 1.09515,1.11341c0.47457,0 0.80311,-0.29204 1.00389,-0.76661l0.74836,-2.00778c0.01825,-0.07301 0.07301,-0.10952 0.16427,-0.10952h4.94645c0.20078,0.01825 0.62059,1.24118 0.78486,1.69749l0.14602,0.41981c0.16427,0.45631 0.52932,0.76661 0.98564,0.76661c0.63884,0 1.11341,-0.45631 1.11341,-1.0404zM212.5072,271.22573c0.01825,0 0.03651,0.05476 0.03651,0.07301l1.75225,4.81868c0.01825,0.01825 0.01825,0.03651 0.01825,0.05476c0,0.05476 -0.05476,0.09126 -0.09126,0.09126h-3.44974c-0.05476,0 -0.09126,-0.03651 -0.09126,-0.07301c0,-0.01825 0,-0.05476 0.01825,-0.07301l1.75225,-4.81868c0.01825,-0.01825 0.01825,-0.07301 0.05476,-0.07301z" data-paper-data="{&quot;glyphName&quot;:&quot;A&quot;,&quot;glyphIndex&quot;:1,&quot;word&quot;:1}"></path><path d="M224.55999,281.17339c0.60234,0 1.0769,-0.47457 1.0769,-1.0769v-4.2711c0,-0.07301 0.03651,-0.10952 0.10952,-0.10952h1.3872c2.33633,0 3.97906,-1.88002 3.97906,-4.19809c0,-2.31808 -1.64273,-4.10683 -3.97906,-4.10683h-2.31808c-0.80311,0 -1.29593,0.62059 -1.29593,1.40545v11.2801c0,0.58408 0.43806,1.0769 1.0404,1.0769zM225.63689,269.67426c0,-0.09126 0.05476,-0.14602 0.14602,-0.14602h1.13166c1.64273,0 2.08079,1.20467 2.08079,1.98953c0,0.80311 -0.43806,2.08079 -2.08079,2.08079h-1.13166c-0.10952,0 -0.14602,-0.03651 -0.14602,-0.10952z" data-paper-data="{&quot;glyphName&quot;:&quot;P&quot;,&quot;glyphIndex&quot;:2,&quot;word&quot;:1}"></path><path d="M245.228,280.13299c0,-0.14602 -0.03651,-0.27379 -0.07301,-0.3833c-2.19031,-5.95034 -3.39498,-9.12629 -4.30761,-11.42612c-0.20078,-0.60234 -0.54758,-0.93088 -1.18642,-0.93088c-0.52932,0 -0.83962,0.32855 -0.98564,0.71185l-4.21635,11.24359c-0.09126,0.20078 -0.21903,0.52932 -0.21903,0.71185c0,0.54758 0.40156,1.11341 1.09515,1.11341c0.47457,0 0.80311,-0.29204 1.00389,-0.76661l0.74836,-2.00778c0.01825,-0.07301 0.07301,-0.10952 0.16427,-0.10952h4.94645c0.20078,0.01825 0.62059,1.24118 0.78486,1.69749l0.14602,0.41981c0.16427,0.45631 0.52932,0.76661 0.98564,0.76661c0.63884,0 1.11341,-0.45631 1.11341,-1.0404zM239.73397,271.22573c0.01825,0 0.03651,0.05476 0.03651,0.07301l1.75225,4.81868c0.01825,0.01825 0.01825,0.03651 0.01825,0.05476c0,0.05476 -0.05476,0.09126 -0.09126,0.09126h-3.44974c-0.05476,0 -0.09126,-0.03651 -0.09126,-0.07301c0,-0.01825 0,-0.05476 0.01825,-0.07301l1.75225,-4.81868c0.01825,-0.01825 0.01825,-0.07301 0.05476,-0.07301z" data-paper-data="{&quot;glyphName&quot;:&quot;A&quot;,&quot;glyphIndex&quot;:3,&quot;word&quot;:1}"></path><path d="M250.74636,268.8894v10.82378c0,0.78486 0.52932,1.3872 1.29593,1.3872h2.8474c2.31808,0 4.07033,-1.71574 4.07033,-4.01557c0,-1.4237 -0.65709,-2.66488 -1.78875,-3.39498c0.49282,-0.60234 0.91263,-1.31419 0.91263,-2.55536c0,-2.1173 -1.62448,-3.72353 -3.81479,-3.72353h-2.22682c-0.76661,0 -1.29593,0.63884 -1.29593,1.47846zM252.88191,275.13178c0,-0.05476 0.03651,-0.09126 0.10952,-0.10952h1.86176c1.40545,0 1.97128,1.13166 1.97128,1.98953c0,0.85787 -0.56583,1.97128 -1.97128,1.97128h-1.84351c-0.09126,0 -0.12777,-0.03651 -0.12777,-0.12777zM252.88191,269.67426c0,-0.09126 0.03651,-0.14602 0.12777,-0.14602h1.18642c1.33244,0 1.82526,1.00389 1.82526,1.75225c0,0.7301 -0.47457,1.7705 -1.7705,1.80701h-1.25943c-0.07301,0 -0.10952,-0.03651 -0.10952,-0.12777z" data-paper-data="{&quot;glyphName&quot;:&quot;B&quot;,&quot;glyphIndex&quot;:4,&quot;word&quot;:1}"></path><path d="M265.55529,281.17339c0.60234,0 1.05865,-0.45631 1.05865,-1.02214v-11.77292c0,-0.60234 -0.45631,-1.0404 -1.05865,-1.0404c-0.58408,0 -1.05865,0.49282 -1.05865,1.0404v11.77292c0,0.58408 0.47457,1.02214 1.05865,1.02214z" data-paper-data="{&quot;glyphName&quot;:&quot;I&quot;,&quot;glyphIndex&quot;:5,&quot;word&quot;:1}"></path><path d="M279.15955,280.04173c0,-0.62059 -0.43806,-1.05865 -1.0404,-1.05865h-3.65052c-0.10952,0 -0.16427,-0.07301 -0.16427,-0.16427v-10.47698c0,-0.60234 -0.45631,-1.02214 -1.05865,-1.02214c-0.60234,0 -1.05865,0.43806 -1.05865,1.02214v11.73641c0,0.65709 0.54758,1.02214 1.09515,1.02214h4.83693c0.60234,0 1.0404,-0.47457 1.0404,-1.05865z" data-paper-data="{&quot;glyphName&quot;:&quot;L&quot;,&quot;glyphIndex&quot;:6,&quot;word&quot;:1}"></path><path d="M285.70006,281.17339c0.60234,0 1.05865,-0.45631 1.05865,-1.02214v-11.77292c0,-0.60234 -0.45631,-1.0404 -1.05865,-1.0404c-0.58408,0 -1.05865,0.49282 -1.05865,1.0404v11.77292c0,0.58408 0.47457,1.02214 1.05865,1.02214z" data-paper-data="{&quot;glyphName&quot;:&quot;I&quot;,&quot;glyphIndex&quot;:7,&quot;word&quot;:1}"></path><path d="M300.30821,281.00912c0.31029,-0.18253 0.49282,-0.51107 0.49282,-0.85787c0,-0.14602 -0.03651,-0.29204 -0.10952,-0.43806l-2.42759,-4.2346c0,-0.01825 -0.01825,-0.03651 -0.01825,-0.05476c0,-0.03651 0.01825,-0.05476 0.05476,-0.07301c1.33244,-0.83962 2.06254,-2.1173 2.06254,-3.77828c0,-2.64662 -1.734,-4.16159 -4.39887,-4.16159h-2.37284c-0.76661,0 -1.27768,0.62059 -1.27768,1.40545v10.89679c0,0.7301 0.23728,1.46021 1.0404,1.46021c0.78486,0 1.09515,-0.63884 1.09515,-1.44195v-3.92431c0,-0.07301 0.03651,-0.10952 0.10952,-0.10952h1.31419c0.10952,0 0.14602,0.03651 0.18253,0.10952l2.5006,4.43538c0.31029,0.56583 0.56583,0.94913 1.13166,0.94913c0.23728,0 0.43806,-0.07301 0.62059,-0.18253zM294.44913,269.67426c0,-0.09126 0.03651,-0.14602 0.12777,-0.14602h1.53322c1.734,0 2.1538,1.13166 2.1538,2.04429c0,1.0404 -0.41981,2.1538 -2.1538,2.1538h-1.53322c-0.09126,0 -0.12777,-0.03651 -0.12777,-0.12777z" data-paper-data="{&quot;glyphName&quot;:&quot;R&quot;,&quot;glyphIndex&quot;:8,&quot;lastGlyphOfWord&quot;:true,&quot;word&quot;:1}"></path><path d="M322.0592,277.50462c-0.01825,0.05476 -0.03651,0.07301 -0.07301,0.07301c-0.01825,0 -0.05476,-0.01825 -0.07301,-0.07301l-3.08469,-8.87075c-0.21903,-0.7301 -0.85787,-1.29593 -1.58797,-1.29593c-1.09515,0 -1.734,1.05865 -1.734,2.40934v10.40397c0,0.56583 0.51107,1.02214 1.09515,1.02214c0.60234,0 1.05865,-0.47457 1.05865,-1.0769v-7.79385c0,-0.45631 0.01825,-0.89438 0.03651,-1.33244c0.18253,0.43806 0.3468,0.91263 0.51107,1.3872c0.47457,1.4237 2.24507,6.68045 2.70138,7.99463c0.14602,0.45631 0.52932,0.82137 1.09515,0.82137c0.52932,0 0.91263,-0.3833 1.05865,-0.83962c0.01825,-0.01825 2.44585,-6.88122 2.97517,-8.43269c0.16427,-0.49282 0.31029,-0.87612 0.32855,-0.87612c0.01825,0.43806 0.01825,0.87612 0.01825,1.33244v7.83036c0,0.54758 0.45631,0.98564 1.00389,0.98564c0.60234,0 1.11341,-0.47457 1.11341,-1.02214v-10.40397c0,-1.3872 -0.43806,-2.40934 -1.734,-2.40934c-1.05865,0 -1.55147,0.96739 -1.84351,1.89827c-0.96739,2.75614 -1.91652,5.51228 -2.86566,8.26842z" data-paper-data="{&quot;glyphName&quot;:&quot;M&quot;,&quot;glyphIndex&quot;:9,&quot;firstGlyphOfWord&quot;:true,&quot;word&quot;:2}"></path><path d="M335.11588,281.17339c0.60234,0 1.05865,-0.45631 1.05865,-1.02214v-11.77292c0,-0.60234 -0.45631,-1.0404 -1.05865,-1.0404c-0.58408,0 -1.05865,0.49282 -1.05865,1.0404v11.77292c0,0.58408 0.47457,1.02214 1.05865,1.02214z" data-paper-data="{&quot;glyphName&quot;:&quot;I&quot;,&quot;glyphIndex&quot;:10,&quot;word&quot;:2}"></path><path d="M341.60163,278.54502c0,1.46021 1.82526,2.70138 3.85129,2.70138c2.04429,0 3.77828,-1.75225 3.77828,-3.90605c0,-2.13555 -1.0404,-3.17595 -3.34022,-4.17984c-1.09515,-0.47457 -2.13555,-0.76661 -2.13555,-2.08079c0,-0.85787 0.76661,-1.66098 1.66098,-1.66098c0.54758,0 1.14991,0.25554 1.49671,0.85787c0.20078,0.36505 0.54758,0.58408 0.93088,0.58408c0.58408,0 1.05865,-0.49282 1.05865,-1.0769c0,-0.14602 -0.03651,-0.29204 -0.09126,-0.43806c-0.54758,-1.27768 -1.93477,-2.06254 -3.32197,-2.06254c-2.22682,0 -3.86955,1.64273 -3.86955,3.90605c0,1.93477 1.16817,3.08469 3.28546,3.85129c1.11341,0.40156 2.22682,0.91263 2.22682,2.29983c0,0.96739 -0.83962,1.80701 -1.734,1.80701c-1.60623,0 -1.69749,-1.60623 -2.88391,-1.60623c-0.47457,0 -0.91263,0.43806 -0.91263,1.00389z" data-paper-data="{&quot;glyphName&quot;:&quot;S&quot;,&quot;glyphIndex&quot;:11,&quot;word&quot;:2}"></path><path d="M355.82648,281.17339c0.60234,0 1.05865,-0.45631 1.05865,-1.02214v-11.77292c0,-0.60234 -0.45631,-1.0404 -1.05865,-1.0404c-0.58408,0 -1.05865,0.49282 -1.05865,1.0404v11.77292c0,0.58408 0.47457,1.02214 1.05865,1.02214z" data-paper-data="{&quot;glyphName&quot;:&quot;I&quot;,&quot;glyphIndex&quot;:12,&quot;word&quot;:2}"></path><path d="M363.88195,267.33793c-0.82137,0 -1.4237,0.65709 -1.4237,1.47846v11.33485c0,0.58408 0.47457,1.02214 1.0769,1.02214c0.60234,0 1.0404,-0.41981 1.0404,-1.02214v-8.77949c0,-0.09126 0.05476,-0.14602 0.12777,-0.14602c0.03651,0 0.07301,0.01825 0.10952,0.09126l5.43927,9.01678c0.23728,0.40156 0.6936,0.83962 1.40545,0.83962c0.91263,0 1.44195,-0.74836 1.44195,-1.46021v-11.33485c0,-0.60234 -0.47457,-1.0404 -1.0769,-1.0404c-0.60234,0 -1.05865,0.43806 -1.05865,1.02214v8.83425c0,0.09126 -0.03651,0.14602 -0.10952,0.14602c-0.03651,0 -0.07301,-0.03651 -0.10952,-0.10952l-5.45752,-9.05328c-0.23728,-0.3833 -0.71185,-0.82137 -1.40545,-0.83962z" data-paper-data="{&quot;glyphName&quot;:&quot;N&quot;,&quot;glyphIndex&quot;:13,&quot;lastGlyphOfWord&quot;:true,&quot;word&quot;:2}"></path><path d="M400.12549,275.16829c0,-0.85787 -0.56583,-1.05865 -1.51496,-1.05865h-3.76003c-0.58408,0 -1.02214,0.45631 -1.02214,1.05865c0,0.58408 0.43806,1.05865 1.02214,1.05865h3.06643c0.03651,0 0.05476,0.01825 0.07301,0.03651v1.47846c0,0.63884 -1.51496,1.3872 -3.37673,1.3872c-2.68313,0 -4.87344,-2.19031 -4.87344,-4.87344c0,-2.68313 2.19031,-4.85519 4.87344,-4.85519c1.16817,0 2.28157,0.40156 3.13944,1.14991c0.20078,0.18253 0.3833,0.29204 0.80311,0.29204c0.51107,0 1.00389,-0.49282 1.00389,-1.0769c0,-0.41981 -0.27379,-0.71185 -0.49282,-0.89438c-0.74836,-0.63884 -2.26332,-1.60623 -4.45363,-1.60623c-3.86955,0 -6.99074,3.12119 -6.99074,6.99074c0,3.86955 3.12119,6.99074 6.99074,6.99074c2.39109,0 4.25285,-1.0769 4.98295,-1.84351c0.3833,-0.40156 0.52932,-0.78486 0.52932,-1.22292z" data-paper-data="{&quot;glyphName&quot;:&quot;G&quot;,&quot;glyphIndex&quot;:14,&quot;firstGlyphOfWord&quot;:true,&quot;word&quot;:3}"></path><path d="M405.55259,274.25566c0,3.86955 3.12119,6.99074 6.99074,6.99074c3.86955,0 6.99074,-3.12119 6.99074,-6.99074c0,-3.86955 -3.12119,-6.99074 -6.99074,-6.99074c-3.86955,0 -6.99074,3.12119 -6.99074,6.99074zM407.66989,274.25566c0,-2.68313 2.19031,-4.85519 4.87344,-4.85519c2.68313,0 4.85519,2.17206 4.85519,4.85519c0,2.68313 -2.17206,4.87344 -4.85519,4.87344c-2.68313,0 -4.87344,-2.19031 -4.87344,-4.87344zM413.18217,264.78257c0,0.54758 0.43806,1.00389 1.00389,1.00389c0.54758,0 1.00389,-0.45631 1.00389,-1.00389c0,-0.54758 -0.47457,-0.98564 -1.00389,-0.98564c-0.54758,0 -1.00389,0.43806 -1.00389,0.98564zM409.8602,264.78257c0,0.54758 0.45631,1.00389 1.02214,1.00389c0.52932,0 0.98564,-0.45631 0.98564,-1.00389c0,-0.54758 -0.45631,-0.98564 -0.98564,-0.98564c-0.56583,0 -1.02214,0.43806 -1.02214,0.98564z" data-paper-data="{&quot;glyphName&quot;:&quot;Ö&quot;,&quot;glyphIndex&quot;:15,&quot;word&quot;:3}"></path><path d="M433.04707,281.00912c0.31029,-0.18253 0.49282,-0.51107 0.49282,-0.85787c0,-0.14602 -0.03651,-0.29204 -0.10952,-0.43806l-2.42759,-4.2346c0,-0.01825 -0.01825,-0.03651 -0.01825,-0.05476c0,-0.03651 0.01825,-0.05476 0.05476,-0.07301c1.33244,-0.83962 2.06254,-2.1173 2.06254,-3.77828c0,-2.64662 -1.734,-4.16159 -4.39887,-4.16159h-2.37284c-0.76661,0 -1.27768,0.62059 -1.27768,1.40545v10.89679c0,0.7301 0.23728,1.46021 1.0404,1.46021c0.78486,0 1.09515,-0.63884 1.09515,-1.44195v-3.92431c0,-0.07301 0.03651,-0.10952 0.10952,-0.10952h1.31419c0.10952,0 0.14602,0.03651 0.18253,0.10952l2.5006,4.43538c0.31029,0.56583 0.56583,0.94913 1.13166,0.94913c0.23728,0 0.43806,-0.07301 0.62059,-0.18253zM427.18799,269.67426c0,-0.09126 0.03651,-0.14602 0.12777,-0.14602h1.53322c1.734,0 2.1538,1.13166 2.1538,2.04429c0,1.0404 -0.41981,2.1538 -2.1538,2.1538h-1.53322c-0.09126,0 -0.12777,-0.03651 -0.12777,-0.12777z" data-paper-data="{&quot;glyphName&quot;:&quot;R&quot;,&quot;glyphIndex&quot;:16,&quot;word&quot;:3}"></path><path d="M446.30453,280.04173c0,-0.58408 -0.49282,-1.05865 -1.0404,-1.05865h-3.86955c-0.09126,0 -0.10952,-0.05476 -0.10952,-0.10952v-3.48624c0,-0.05476 0.03651,-0.09126 0.10952,-0.09126h3.86955c0.58408,0 1.0404,-0.47457 1.0404,-1.0769c0,-0.58408 -0.49282,-1.05865 -1.0404,-1.05865h-3.86955c-0.07301,0 -0.10952,-0.01825 -0.10952,-0.09126v-3.43149c0,-0.05476 0.03651,-0.09126 0.10952,-0.09126h3.86955c0.60234,0 0.96739,-0.43806 0.96739,-0.96739c0,-0.78486 -0.45631,-1.16817 -0.96739,-1.16817h-5.07422c-0.80311,0 -1.0404,0.6936 -1.0404,1.49671v10.75077c0,0.74836 0.21903,1.44195 1.05865,1.44195h4.87344c0.65709,0 1.22292,-0.36505 1.22292,-1.05865z" data-paper-data="{&quot;glyphName&quot;:&quot;E&quot;,&quot;glyphIndex&quot;:17,&quot;word&quot;:3}"></path><path d="M458.83188,280.04173c0,-0.62059 -0.43806,-1.05865 -1.0404,-1.05865h-3.65052c-0.10952,0 -0.16427,-0.07301 -0.16427,-0.16427v-10.47698c0,-0.60234 -0.45631,-1.02214 -1.05865,-1.02214c-0.60234,0 -1.05865,0.43806 -1.05865,1.02214v11.73641c0,0.65709 0.54758,1.02214 1.09515,1.02214h4.83693c0.60234,0 1.0404,-0.47457 1.0404,-1.05865z" data-paper-data="{&quot;glyphName&quot;:&quot;L&quot;,&quot;glyphIndex&quot;:18,&quot;word&quot;:3}"></path><path d="M465.37239,281.17339c0.60234,0 1.05865,-0.45631 1.05865,-1.02214v-11.77292c0,-0.60234 -0.45631,-1.0404 -1.05865,-1.0404c-0.58408,0 -1.05865,0.49282 -1.05865,1.0404v11.77292c0,0.58408 0.47457,1.02214 1.05865,1.02214z" data-paper-data="{&quot;glyphName&quot;:&quot;I&quot;,&quot;glyphIndex&quot;:19,&quot;word&quot;:3}"></path><path d="M478.55684,277.50462c-0.01825,0.05476 -0.03651,0.07301 -0.07301,0.07301c-0.01825,0 -0.05476,-0.01825 -0.07301,-0.07301l-3.08469,-8.87075c-0.21903,-0.7301 -0.85787,-1.29593 -1.58797,-1.29593c-1.09515,0 -1.734,1.05865 -1.734,2.40934v10.40397c0,0.56583 0.51107,1.02214 1.09515,1.02214c0.60234,0 1.05865,-0.47457 1.05865,-1.0769v-7.79385c0,-0.45631 0.01825,-0.89438 0.03651,-1.33244c0.18253,0.43806 0.3468,0.91263 0.51107,1.3872c0.47457,1.4237 2.24507,6.68045 2.70138,7.99463c0.14602,0.45631 0.52932,0.82137 1.09515,0.82137c0.52932,0 0.91263,-0.3833 1.05865,-0.83962c0.01825,-0.01825 2.44585,-6.88122 2.97517,-8.43269c0.16427,-0.49282 0.31029,-0.87612 0.32855,-0.87612c0.01825,0.43806 0.01825,0.87612 0.01825,1.33244v7.83036c0,0.54758 0.45631,0.98564 1.00389,0.98564c0.60234,0 1.11341,-0.47457 1.11341,-1.02214v-10.40397c0,-1.3872 -0.43806,-2.40934 -1.734,-2.40934c-1.05865,0 -1.55147,0.96739 -1.84351,1.89827c-0.96739,2.75614 -1.91652,5.51228 -2.86566,8.26842z" data-paper-data="{&quot;glyphName&quot;:&quot;M&quot;,&quot;glyphIndex&quot;:20,&quot;lastGlyphOfWord&quot;:true,&quot;word&quot;:3}"></path></g><g data-paper-data="{&quot;isPrimaryText&quot;:true}" fill-rule="nonzero"><path d="M201.57406,208.34261c-1.22944,0.6557 -1.39336,-2.78672 -1.3114,-7.54054c0.16392,-1.9671 0.40981,-4.99971 0.08196,-6.22914c-0.32785,-0.98355 -0.90159,-1.63925 -1.9671,-1.63925c-0.81962,0 -1.47532,0.40981 -1.80317,1.14747c-0.73766,1.55729 -0.90159,3.19653 -0.90159,4.91774c-0.24589,15.57285 0.08196,31.14571 1.63925,46.71856c0.16392,1.06551 0.16392,2.45887 0.57374,3.44242c0.24589,0.90159 0.98355,1.3114 2.13102,1.06551c0.98355,-0.16392 1.80317,-0.40981 1.9671,-1.39336c0.08196,-0.57374 -0.08196,-1.63925 -0.16392,-2.21298c-0.32785,-3.36046 -0.73766,-6.63895 -0.98355,-9.99941c-0.32785,-3.77027 -0.49177,-9.26175 -0.16392,-13.11398c0,-0.32785 0.32785,-0.81962 0.6557,-0.16392c2.29495,4.75382 4.01616,8.68801 5.90129,12.29436c1.3114,2.54083 2.78672,4.99971 4.42597,7.37661c0.6557,1.06551 1.55729,1.80317 3.19653,0.81962c1.22944,-0.81962 1.39336,-1.88513 0.49177,-3.2785c-0.08196,-0.24589 -0.57374,-0.98355 -0.73766,-1.14747c-3.19653,-4.91774 -5.90129,-10.73707 -8.76998,-16.39248c-4.50793,-8.76998 -5.73737,-8.03231 2.95065,-15.32697c2.95065,-2.45887 5.6554,-5.40952 8.44213,-8.19624c0.98355,-0.98355 1.88513,-2.29495 0.40981,-3.52438c-1.22944,-1.06551 -2.21298,-0.24589 -3.19653,0.6557c-1.55729,1.63925 -3.19653,3.2785 -4.91774,4.75382c-2.6228,2.21298 -5.08167,5.08167 -7.95035,6.9668z" data-paper-data="{&quot;glyphName&quot;:&quot;K&quot;,&quot;glyphIndex&quot;:0,&quot;firstGlyphOfWord&quot;:true,&quot;word&quot;:1}" fill="#ed8b00"></path><path d="M222.39251,231.70189c0,5.40952 -0.24589,8.68801 0,12.95006c0.08196,1.88513 1.06551,3.68831 2.70476,4.83578c3.36046,2.21298 7.21269,2.21298 10.98296,1.72121c0.81962,-0.08196 1.3114,-0.73766 1.3114,-1.63925c0.08196,-0.81962 -0.40981,-1.47532 -1.14747,-1.72121c-0.98355,-0.24589 -2.04906,-0.32785 -3.11457,-0.40981c-1.39336,-0.08196 -2.70476,-0.16392 -4.01616,-0.73766c-2.21298,-0.90159 -2.04906,-1.55729 -1.88513,-4.67186c0.16392,-2.54083 0.6557,-2.6228 3.03261,-2.6228c1.47532,-0.08196 3.03261,-0.08196 4.50793,-0.40981c1.3114,-0.24589 2.78672,-0.73766 2.54083,-2.6228c-0.24589,-1.47532 -1.63925,-1.63925 -2.86868,-1.63925c-1.39336,0 -2.70476,0.08196 -4.09812,0c-3.44242,0 -3.44242,0 -3.44242,-3.36046c0.24589,-9.50764 0.6557,-14.17949 1.22944,-23.68713c0.08196,-1.06551 0.90159,-7.6225 1.14747,-8.60605c0.98355,-3.85223 0.73766,-4.01616 4.83578,-4.18008c2.29495,0 4.50793,-0.08196 6.80288,-0.16392c0.90159,-0.08196 1.88513,-0.40981 1.9671,-1.55729c0,-1.47532 -0.40981,-2.21298 -4.18008,-2.21298c-3.68831,0.08196 -6.14718,0.08196 -9.75352,0.16392c-1.72121,0.08196 -2.78672,1.06551 -3.19653,2.78672c-0.24589,1.3114 -0.6557,2.6228 -0.81962,4.01616c-1.72121,11.22885 -2.29495,21.72003 -2.54083,33.7685z" data-paper-data="{&quot;glyphName&quot;:&quot;E&quot;,&quot;glyphIndex&quot;:1,&quot;word&quot;:1}" fill="#e3e935"></path><path d="M251.57112,211.70307c0.08196,-1.39336 0.90159,0.24589 1.72121,3.03261c3.19653,10.40922 6.39307,20.90041 9.67156,31.30963c0.57374,1.72121 0.90159,4.50793 3.52438,3.85223c2.29495,-0.49177 1.39336,-3.03261 1.3114,-4.75382c-0.40981,-11.31081 0.08196,-22.70358 1.39336,-34.01439c0.57374,-5.08167 1.47532,-10.16334 2.29495,-15.245c0.24589,-1.72121 0.40981,-3.36046 0.16392,-4.99971c-0.16392,-1.14747 -0.6557,-2.04906 -1.9671,-2.13102c-1.22944,0 -1.88513,0.81962 -2.21298,1.9671c-0.16392,0.57374 -0.16392,1.14747 -0.24589,1.80317c-1.06551,11.31081 -3.44242,21.88396 -3.19653,33.93243c0,1.63925 -0.08196,4.26204 -0.24589,5.16363c-0.24589,1.06551 -2.70476,-6.55699 -3.68831,-9.5896c-2.6228,-7.86839 -5.32756,-15.81874 -8.03231,-23.68713c-0.49177,-1.47532 -0.90159,-3.11457 -2.95065,-2.6228c-1.88513,0.49177 -1.80317,2.04906 -1.9671,3.68831c-0.57374,7.04877 -0.57374,14.01557 -1.06551,21.31022c-0.32785,8.68801 0.08196,17.62191 0.6557,24.91657c0.08196,1.14747 0.49177,3.03261 0.98355,3.85223c0.49177,0.73766 1.39336,0.81962 2.21298,0.73766c0.81962,-0.08196 1.39336,-0.57374 1.63925,-1.39336c0.49177,-1.3114 0.24589,-2.70476 0.16392,-4.01616c-1.22944,-11.5567 -1.22944,-21.47415 -0.16392,-33.11281z" data-paper-data="{&quot;glyphName&quot;:&quot;N&quot;,&quot;glyphIndex&quot;:2,&quot;word&quot;:1}" fill="#ed8b00"></path><path d="M275.5861,231.04619c0,5.6554 0.57374,10.81904 0.57374,15.32697c0,2.6228 0.98355,3.68831 3.52438,3.11457c2.37691,-0.57374 5.08167,-2.04906 6.88484,-4.01616c4.99971,-5.49148 8.19624,-13.60576 9.34371,-22.29377c1.63925,-11.72062 -4.18008,-23.93302 -14.42538,-29.58842c-2.29495,-1.39336 -3.03261,-1.06551 -3.77027,1.63925c-1.72121,6.63895 -2.13102,13.52379 -2.13102,20.24471c0,5.73737 -0.16392,10.901 0,15.57285zM281.15954,243.58644c-0.90159,-14.17949 -2.04906,-28.19506 0,-42.29259c0.24589,-2.21298 1.22944,-2.54083 2.95065,-0.90159c1.55729,1.47532 3.03261,2.95065 4.01616,4.83578c5.98325,11.5567 3.85223,27.86721 -4.83578,37.45681c-0.40981,0.40981 -1.9671,1.9671 -2.13102,0.90159z" data-paper-data="{&quot;glyphName&quot;:&quot;D&quot;,&quot;glyphIndex&quot;:3,&quot;word&quot;:1}" fill="#e3e935"></path><path d="M302.46976,251.61875c1.39336,0.16392 8.11428,-0.08196 9.50764,-0.32785c1.39336,-0.08196 2.04906,-0.98355 2.13102,-2.13102c0.08196,-1.3114 -0.73766,-2.04906 -2.04906,-2.13102c-2.54083,-0.16392 -2.78672,-0.81962 -2.86868,-3.2785c0.08196,-8.76998 -1.06551,-16.31052 -0.57374,-25.40834c0.40981,-6.3111 0.49177,-12.13043 1.22944,-18.19565c0.49177,-3.68831 0.24589,-4.26204 3.03261,-5.32756c1.9671,-0.81962 1.72121,-3.2785 -0.24589,-3.60635c-3.44242,-0.73766 -6.3111,-0.98355 -9.50764,-0.40981c-1.80317,0.32785 -2.29495,2.54083 -0.73766,3.36046c3.11457,1.55729 2.70476,1.63925 2.70476,5.40952c-0.16392,2.29495 -0.16392,5.08167 -0.32785,7.04877c-1.22944,11.80258 -0.40981,23.60517 -0.24589,35.40775c0.08196,2.54083 0.40981,4.58989 -2.70476,5.24559c-1.06551,0.24589 -1.88513,0.49177 -1.55729,2.29495c0.24589,1.47532 1.06551,1.88513 2.21298,2.04906z" data-paper-data="{&quot;glyphName&quot;:&quot;I&quot;,&quot;glyphIndex&quot;:4,&quot;word&quot;:1}" fill="#ed8b00"></path><path d="M325.00942,211.70307c0.08196,-1.39336 0.90159,0.24589 1.72121,3.03261c3.19653,10.40922 6.39307,20.90041 9.67156,31.30963c0.57374,1.72121 0.90159,4.50793 3.52438,3.85223c2.29495,-0.49177 1.39336,-3.03261 1.3114,-4.75382c-0.40981,-11.31081 0.08196,-22.70358 1.39336,-34.01439c0.57374,-5.08167 1.47532,-10.16334 2.29495,-15.245c0.24589,-1.72121 0.40981,-3.36046 0.16392,-4.99971c-0.16392,-1.14747 -0.6557,-2.04906 -1.9671,-2.13102c-1.22944,0 -1.88513,0.81962 -2.21298,1.9671c-0.16392,0.57374 -0.16392,1.14747 -0.24589,1.80317c-1.06551,11.31081 -3.44242,21.88396 -3.19653,33.93243c0,1.63925 -0.08196,4.26204 -0.24589,5.16363c-0.24589,1.06551 -2.70476,-6.55699 -3.68831,-9.5896c-2.6228,-7.86839 -5.32756,-15.81874 -8.03231,-23.68713c-0.49177,-1.47532 -0.90159,-3.11457 -2.95065,-2.6228c-1.88513,0.49177 -1.80317,2.04906 -1.9671,3.68831c-0.57374,7.04877 -0.57374,14.01557 -1.06551,21.31022c-0.32785,8.68801 0.08196,17.62191 0.6557,24.91657c0.08196,1.14747 0.49177,3.03261 0.98355,3.85223c0.49177,0.73766 1.39336,0.81962 2.21298,0.73766c0.81962,-0.08196 1.39336,-0.57374 1.63925,-1.39336c0.49177,-1.3114 0.24589,-2.70476 0.16392,-4.01616c-1.22944,-11.5567 -1.22944,-21.47415 -0.16392,-33.11281z" data-paper-data="{&quot;glyphName&quot;:&quot;N&quot;,&quot;glyphIndex&quot;:5,&quot;word&quot;:1}" fill="#e3e935"></path><path d="M350.90953,251.61875c1.39336,0.16392 8.11428,-0.08196 9.50764,-0.32785c1.39336,-0.08196 2.04906,-0.98355 2.13102,-2.13102c0.08196,-1.3114 -0.73766,-2.04906 -2.04906,-2.13102c-2.54083,-0.16392 -2.78672,-0.81962 -2.86868,-3.2785c0.08196,-8.76998 -1.06551,-16.31052 -0.57374,-25.40834c0.40981,-6.3111 0.49177,-12.13043 1.22944,-18.19565c0.49177,-3.68831 0.24589,-4.26204 3.03261,-5.32756c1.9671,-0.81962 1.72121,-3.2785 -0.24589,-3.60635c-3.44242,-0.73766 -6.3111,-0.98355 -9.50764,-0.40981c-1.80317,0.32785 -2.29495,2.54083 -0.73766,3.36046c3.11457,1.55729 2.70476,1.63925 2.70476,5.40952c-0.16392,2.29495 -0.16392,5.08167 -0.32785,7.04877c-1.22944,11.80258 -0.40981,23.60517 -0.24589,35.40775c0.08196,2.54083 0.40981,4.58989 -2.70476,5.24559c-1.06551,0.24589 -1.88513,0.49177 -1.55729,2.29495c0.24589,1.47532 1.06551,1.88513 2.21298,2.04906z" data-paper-data="{&quot;glyphName&quot;:&quot;I&quot;,&quot;glyphIndex&quot;:6,&quot;lastGlyphOfWord&quot;:true,&quot;word&quot;:1}" fill="#ed8b00"></path><path d="M385.98943,231.04619c0,5.6554 0.57374,10.81904 0.57374,15.32697c0,2.6228 0.98355,3.68831 3.52438,3.11457c2.37691,-0.57374 5.08167,-2.04906 6.88484,-4.01616c4.99971,-5.49148 8.19624,-13.60576 9.34371,-22.29377c1.63925,-11.72062 -4.18008,-23.93302 -14.42538,-29.58842c-2.29495,-1.39336 -3.03261,-1.06551 -3.77027,1.63925c-1.72121,6.63895 -2.13102,13.52379 -2.13102,20.24471c0,5.73737 -0.16392,10.901 0,15.57285zM391.56288,243.58644c-0.90159,-14.17949 -2.04906,-28.19506 0,-42.29259c0.24589,-2.21298 1.22944,-2.54083 2.95065,-0.90159c1.55729,1.47532 3.03261,2.95065 4.01616,4.83578c5.98325,11.5567 3.85223,27.86721 -4.83578,37.45681c-0.40981,0.40981 -1.9671,1.9671 -2.13102,0.90159z" data-paper-data="{&quot;glyphName&quot;:&quot;D&quot;,&quot;glyphIndex&quot;:7,&quot;firstGlyphOfWord&quot;:true,&quot;word&quot;:2}" fill="#e3e935"></path><path d="M411.15189,231.70189c0,5.40952 -0.24589,8.68801 0,12.95006c0.08196,1.88513 1.06551,3.68831 2.70476,4.83578c3.36046,2.21298 7.21269,2.21298 10.98296,1.72121c0.81962,-0.08196 1.3114,-0.73766 1.3114,-1.63925c0.08196,-0.81962 -0.40981,-1.47532 -1.14747,-1.72121c-0.98355,-0.24589 -2.04906,-0.32785 -3.11457,-0.40981c-1.39336,-0.08196 -2.70476,-0.16392 -4.01616,-0.73766c-2.21298,-0.90159 -2.04906,-1.55729 -1.88513,-4.67186c0.16392,-2.54083 0.6557,-2.6228 3.03261,-2.6228c1.47532,-0.08196 3.03261,-0.08196 4.50793,-0.40981c1.3114,-0.24589 2.78672,-0.73766 2.54083,-2.6228c-0.24589,-1.47532 -1.63925,-1.63925 -2.86868,-1.63925c-1.39336,0 -2.70476,0.08196 -4.09812,0c-3.44242,0 -3.44242,0 -3.44242,-3.36046c0.24589,-9.50764 0.6557,-14.17949 1.22944,-23.68713c0.08196,-1.06551 0.90159,-7.6225 1.14747,-8.60605c0.98355,-3.85223 0.73766,-4.01616 4.83578,-4.18008c2.29495,0 4.50793,-0.08196 6.80288,-0.16392c0.90159,-0.08196 1.88513,-0.40981 1.9671,-1.55729c0,-1.47532 -0.40981,-2.21298 -4.18008,-2.21298c-3.68831,0.08196 -6.14718,0.08196 -9.75352,0.16392c-1.72121,0.08196 -2.78672,1.06551 -3.19653,2.78672c-0.24589,1.3114 -0.6557,2.6228 -0.81962,4.01616c-1.72121,11.22885 -2.29495,21.72003 -2.54083,33.7685z" data-paper-data="{&quot;glyphName&quot;:&quot;E&quot;,&quot;glyphIndex&quot;:8,&quot;word&quot;:2}" fill="#ed8b00"></path><path d="M440.3305,211.70307c0.08196,-1.39336 0.90159,0.24589 1.72121,3.03261c3.19653,10.40922 6.39307,20.90041 9.67156,31.30963c0.57374,1.72121 0.90159,4.50793 3.52438,3.85223c2.29495,-0.49177 1.39336,-3.03261 1.3114,-4.75382c-0.40981,-11.31081 0.08196,-22.70358 1.39336,-34.01439c0.57374,-5.08167 1.47532,-10.16334 2.29495,-15.245c0.24589,-1.72121 0.40981,-3.36046 0.16392,-4.99971c-0.16392,-1.14747 -0.6557,-2.04906 -1.9671,-2.13102c-1.22944,0 -1.88513,0.81962 -2.21298,1.9671c-0.16392,0.57374 -0.16392,1.14747 -0.24589,1.80317c-1.06551,11.31081 -3.44242,21.88396 -3.19653,33.93243c0,1.63925 -0.08196,4.26204 -0.24589,5.16363c-0.24589,1.06551 -2.70476,-6.55699 -3.68831,-9.5896c-2.6228,-7.86839 -5.32756,-15.81874 -8.03231,-23.68713c-0.49177,-1.47532 -0.90159,-3.11457 -2.95065,-2.6228c-1.88513,0.49177 -1.80317,2.04906 -1.9671,3.68831c-0.57374,7.04877 -0.57374,14.01557 -1.06551,21.31022c-0.32785,8.68801 0.08196,17.62191 0.6557,24.91657c0.08196,1.14747 0.49177,3.03261 0.98355,3.85223c0.49177,0.73766 1.39336,0.81962 2.21298,0.73766c0.81962,-0.08196 1.39336,-0.57374 1.63925,-1.39336c0.49177,-1.3114 0.24589,-2.70476 0.16392,-4.01616c-1.22944,-11.5567 -1.22944,-21.47415 -0.16392,-33.11281z" data-paper-data="{&quot;glyphName&quot;:&quot;N&quot;,&quot;glyphIndex&quot;:9,&quot;word&quot;:2}" fill="#e3e935"></path><path d="M464.5094,231.70189c0,5.40952 -0.24589,8.68801 0,12.95006c0.08196,1.88513 1.06551,3.68831 2.70476,4.83578c3.36046,2.21298 7.21269,2.21298 10.98296,1.72121c0.81962,-0.08196 1.3114,-0.73766 1.3114,-1.63925c0.08196,-0.81962 -0.40981,-1.47532 -1.14747,-1.72121c-0.98355,-0.24589 -2.04906,-0.32785 -3.11457,-0.40981c-1.39336,-0.08196 -2.70476,-0.16392 -4.01616,-0.73766c-2.21298,-0.90159 -2.04906,-1.55729 -1.88513,-4.67186c0.16392,-2.54083 0.6557,-2.6228 3.03261,-2.6228c1.47532,-0.08196 3.03261,-0.08196 4.50793,-0.40981c1.3114,-0.24589 2.78672,-0.73766 2.54083,-2.6228c-0.24589,-1.47532 -1.63925,-1.63925 -2.86868,-1.63925c-1.39336,0 -2.70476,0.08196 -4.09812,0c-3.44242,0 -3.44242,0 -3.44242,-3.36046c0.24589,-9.50764 0.6557,-14.17949 1.22944,-23.68713c0.08196,-1.06551 0.90159,-7.6225 1.14747,-8.60605c0.98355,-3.85223 0.73766,-4.01616 4.83578,-4.18008c2.29495,0 4.50793,-0.08196 6.80288,-0.16392c0.90159,-0.08196 1.88513,-0.40981 1.9671,-1.55729c0,-1.47532 -0.40981,-2.21298 -4.18008,-2.21298c-3.68831,0.08196 -6.14718,0.08196 -9.75352,0.16392c-1.72121,0.08196 -2.78672,1.06551 -3.19653,2.78672c-0.24589,1.3114 -0.6557,2.6228 -0.81962,4.01616c-1.72121,11.22885 -2.29495,21.72003 -2.54083,33.7685z" data-paper-data="{&quot;glyphName&quot;:&quot;E&quot;,&quot;glyphIndex&quot;:10,&quot;lastGlyphOfWord&quot;:true,&quot;word&quot;:2}" fill="#ed8b00"></path></g><g data-paper-data="{&quot;fillRule&quot;:&quot;evenodd&quot;,&quot;fillRuleOriginal&quot;:&quot;evenodd&quot;,&quot;isIcon&quot;:true,&quot;iconStyle&quot;:&quot;standalone&quot;,&quot;selectedEffects&quot;:{&quot;container&quot;:&quot;&quot;,&quot;transformation&quot;:&quot;&quot;,&quot;pattern&quot;:&quot;&quot;},&quot;bounds&quot;:{&quot;x&quot;:65,&quot;y&quot;:170.5633511468881,&quot;width&quot;:102.98727919445253,&quot;height&quot;:128.87329770622384},&quot;iconType&quot;:&quot;icon&quot;,&quot;rawIconId&quot;:&quot;68987&quot;,&quot;isDetailed&quot;:false,&quot;suitableAsStandaloneIcon&quot;:true}" fill="#ed8b00" fill-rule="evenodd"><path d="M102.02771,190.83963c-2.56026,3.76767 -4.63344,8.54243 -6.22365,14.31605c-1.59296,5.77361 -1.86737,11.52665 -0.83009,17.26185c0.13858,0.83009 0.41573,2.26252 0.83009,4.3014c0.41573,2.04573 0.68877,3.53168 0.83146,4.4633c0.13583,0.93163 0.34439,2.29545 0.62154,4.09833c0.27304,1.79602 0.39515,3.16122 0.36085,4.09285c-0.0343,0.93849 -0.06861,2.09376 -0.10153,3.4768c-0.03704,1.38441 -0.24286,2.47245 -0.62429,3.26824c-0.37869,0.79717 -0.8493,1.6204 -1.39813,2.48617c-0.55705,0.86988 -1.28288,1.571 -2.18157,2.12531c-0.89733,0.55431 -1.96753,0.97279 -3.21336,1.24857c-2.62612,0.68877 -4.94215,0.24423 -6.94809,-1.34873c-2.00457,-1.5957 -3.40544,-3.71416 -4.19987,-6.38007c-0.79717,-2.66042 -1.31718,-5.47588 -1.55729,-8.45462c-0.24286,-2.97188 0.11937,-5.56369 1.09078,-7.77819c-3.5989,3.18729 -6.4816,6.6778 -8.66317,10.47977c-2.17883,3.80197 -3.52481,7.50104 -4.04482,11.09308c-0.51589,3.60028 -0.77658,6.53785 -0.77658,8.82095c0,2.28036 0.17288,4.45507 0.52001,6.53511c0.62017,3.8692 2.14041,8.00184 4.56072,12.39105c2.42031,4.38784 6.0494,8.14179 10.89139,11.25773c2.14041,1.45026 4.35491,2.00321 6.63801,1.65196c2.2831,-0.34302 4.42351,-1.15253 6.4322,-2.4354c2.00183,-1.27464 3.97348,-2.98559 5.91219,-5.1315c1.93323,-2.14041 3.59205,-4.26847 4.97508,-6.38144c1.38577,-2.10748 2.59319,-4.19987 3.63046,-6.27304c2.2145,-4.56346 3.56186,-10.93804 4.04482,-19.13608c0.48159,-8.18981 0.03293,-13.63962 -1.34736,-16.33434c5.46216,5.53077 9.67712,11.20285 12.65311,17.00802c2.97188,5.80929 3.87332,12.17701 2.69884,19.08532c-0.34851,2.28036 -1.05786,4.68283 -2.12806,7.21016c-1.07295,2.52596 -2.37091,5.30712 -3.88841,8.34622c-0.69289,1.31718 -1.19232,2.32152 -1.50652,3.01167c-0.31008,0.68877 -0.72582,1.5861 -1.24309,2.69472c-0.51864,1.10588 -0.83009,1.91539 -0.93437,2.4354c-0.10291,0.52001 -0.20718,1.17585 -0.31145,1.97302c-0.10565,0.79579 -0.01784,1.33089 0.25932,1.60805c0.27578,0.27578 0.65447,0.60919 1.14018,0.98514c0.48434,0.37869 1.15802,0.55431 2.02378,0.52001c0.86303,-0.03155 1.91814,-0.12074 3.16396,-0.26344c1.24171,-0.13309 2.69747,-0.41024 4.35628,-0.82872c3.93917,-1.37755 7.08531,-2.5534 9.43838,-3.52481c2.35171,-0.96593 5.37572,-2.50537 9.07479,-4.61149c3.69769,-2.11297 6.70662,-4.32061 9.02265,-6.63664c2.31466,-2.31603 4.5813,-5.37435 6.79305,-9.18318c2.21587,-3.80334 3.83764,-8.01556 4.87492,-12.65448c2.62612,-11.89025 1.08941,-23.69405 -4.61423,-35.41691c-5.70227,-11.72286 -14.22823,-21.35195 -25.56554,-28.88729c1.51887,3.04459 3.00755,7.50104 4.45918,13.38305c2.69335,10.99293 1.59159,16.31376 -3.319,15.96937c-1.04139,-0.13583 -2.17746,-0.44592 -3.42328,-0.93163c-5.46216,-2.2831 -9.62773,-5.74069 -12.49807,-10.37275c-2.86897,-4.63207 -4.39196,-10.70205 -4.56483,-18.20446c-0.1715,-7.50104 1.50652,-16.40157 5.03134,-26.70572c-0.8987,0.55294 -2.07318,1.36383 -3.52481,2.43678c-1.45164,1.07158 -3.95975,3.3684 -7.51887,6.89321c-3.56186,3.53168 -6.62292,7.1786 -9.17907,10.94627z" data-paper-data="{&quot;isPathIcon&quot;:true}"></path></g></g></g></svg>